<svg width="20" height="20" viewBox="0 0 20 20" fill="none" xmlns="http://www.w3.org/2000/svg">
<path d="M11 6C11 5.44772 10.5523 5 10 5C9.44772 5 9 5.44771 9 6L11 6ZM9 14C9 14.5523 9.44771 15 10 15C10.5523 15 11 14.5523 11 14H9ZM14 11C14.5523 11 15 10.5523 15 10C15 9.44771 14.5523 9 14 9V11ZM6 9C5.44771 9 5 9.44771 5 10C5 10.5523 5.44771 11 6 11V9ZM17 10C17 13.866 13.866 17 10 17V19C14.9706 19 19 14.9706 19 10H17ZM10 17C6.13401 17 3 13.866 3 10H1C1 14.9706 5.02944 19 10 19V17ZM3 10C3 6.13401 6.13401 3 10 3V1C5.02944 1 1 5.02944 1 10H3ZM10 3C13.866 3 17 6.13401 17 10H19C19 5.02944 14.9706 1 10 1V3ZM9 6L9 10H11L11 6L9 6ZM9 10V14H11V10H9ZM14 9H10V11H14V9ZM10 9H6V11H10V9Z" fill="#F7F8F8"/>
</svg>
