<svg width="260" height="227" viewBox="0 0 260 227" fill="none" xmlns="http://www.w3.org/2000/svg">
<g opacity="0.22">
<path style="mix-blend-mode:screen" d="M76.9301 207.78C77.9895 209.058 77.8184 210.947 76.5471 212.013C75.2677 213.072 73.3771 212.901 72.3095 211.631C71.242 210.361 71.4213 208.464 72.6925 207.397C73.9719 206.339 75.8626 206.51 76.9301 207.78Z" fill="url(#paint0_radial_225_1505)"/>
<path style="mix-blend-mode:screen" d="M93.6847 133.952C95.5264 136.159 95.2249 139.44 93.0165 141.28C90.8081 143.12 87.5239 142.819 85.6822 140.612C83.8405 138.406 84.142 135.125 86.3505 133.285C88.5589 131.445 91.843 131.746 93.6847 133.952Z" fill="url(#paint1_radial_225_1505)"/>
<path style="mix-blend-mode:screen" d="M154.339 221.506C155.529 222.931 155.333 225.04 153.907 226.229C152.481 227.417 150.37 227.222 149.18 225.797C147.991 224.372 148.186 222.264 149.612 221.075C151.038 219.886 153.149 220.082 154.339 221.506Z" fill="url(#paint2_radial_225_1505)"/>
<path style="mix-blend-mode:screen" d="M213.836 25.3039C216.37 28.3488 215.963 32.8674 212.915 35.3994C209.867 37.9314 205.345 37.5243 202.81 34.4794C200.276 31.4344 200.683 26.9159 203.731 24.3839C206.779 21.8519 211.302 22.259 213.836 25.3039Z" fill="url(#paint3_radial_225_1505)"/>
<path style="mix-blend-mode:screen" d="M64.6654 56.4941C67.2405 59.5879 66.8249 64.1797 63.7282 66.7524C60.6315 69.3251 56.0354 68.9099 53.4603 65.8161C50.8851 62.7223 51.3007 58.1305 54.3974 55.5578C57.4941 52.9851 62.0902 53.4003 64.6654 56.4941Z" fill="url(#paint4_radial_225_1505)"/>
<path style="mix-blend-mode:screen" d="M123.405 148.786C125.817 151.685 125.426 155.983 122.525 158.393C119.624 160.803 115.321 160.412 112.909 157.514C110.497 154.616 110.888 150.317 113.789 147.907C116.69 145.497 120.993 145.888 123.405 148.786Z" fill="url(#paint5_radial_225_1505)"/>
<path style="mix-blend-mode:screen" d="M157.273 2.58089C159.807 5.62582 159.4 10.1444 156.352 12.6764C153.304 15.2084 148.781 14.8013 146.247 11.7564C143.713 8.71146 144.12 4.19291 147.168 1.6609C150.216 -0.871114 154.738 -0.464038 157.273 2.58089Z" fill="url(#paint6_radial_225_1505)"/>
<path style="mix-blend-mode:screen" d="M92.1689 6.28528C93.3179 7.6612 93.1305 9.69658 91.7533 10.8445C90.3761 11.9925 88.3388 11.8052 87.1898 10.4293C86.0407 9.0534 86.2282 7.01802 87.6054 5.87006C88.9826 4.72211 91.0199 4.90936 92.1689 6.28528Z" fill="url(#paint7_radial_225_1505)"/>
<path style="mix-blend-mode:screen" d="M164.974 85.7954C165.422 86.3328 165.349 87.1388 164.811 87.5866C164.273 88.0343 163.466 87.9611 163.018 87.4237C162.57 86.8864 162.643 86.0804 163.181 85.6326C163.719 85.1848 164.526 85.2581 164.974 85.7954Z" fill="url(#paint8_radial_225_1505)"/>
<path style="mix-blend-mode:screen" d="M95.6732 81.8875C96.6918 83.1168 96.5288 84.9324 95.2983 85.9582C94.0678 86.9759 92.2505 86.8131 91.2237 85.5837C90.2051 84.3544 90.368 82.5388 91.5986 81.513C92.8291 80.4953 94.6464 80.6581 95.6732 81.8875Z" fill="url(#paint9_radial_225_1505)"/>
<path style="mix-blend-mode:screen" d="M116.616 171.379C117.105 171.965 117.024 172.845 116.437 173.333C115.85 173.822 114.97 173.74 114.481 173.154C113.992 172.568 114.074 171.688 114.661 171.2C115.247 170.711 116.127 170.793 116.616 171.379Z" fill="url(#paint10_radial_225_1505)"/>
<path style="mix-blend-mode:screen" d="M228.994 163.555C230.053 164.833 229.882 166.722 228.611 167.789C227.331 168.847 225.441 168.676 224.373 167.406C223.314 166.128 223.485 164.239 224.756 163.172C226.027 162.106 227.926 162.285 228.994 163.555Z" fill="url(#paint11_radial_225_1505)"/>
<path style="mix-blend-mode:screen" d="M202.81 72.6062C204.163 74.2263 203.943 76.6281 202.321 77.9796C200.7 79.3311 198.296 79.1112 196.943 77.4911C195.59 75.8709 195.81 73.4692 197.432 72.1177C199.054 70.7662 201.458 70.986 202.81 72.6062Z" fill="url(#paint12_radial_225_1505)"/>
<path style="mix-blend-mode:screen" d="M90.0503 3.2485C92.218 5.84565 91.8676 9.71287 89.2598 11.8785C86.6603 14.0442 82.7894 13.6941 80.6217 11.0888C78.454 8.49164 78.8045 4.62442 81.4122 2.45877C84.0118 0.293127 87.8826 0.643213 90.0503 3.2485Z" fill="url(#paint13_radial_225_1505)"/>
<path style="mix-blend-mode:screen" d="M178.232 132.568C179.463 134.042 179.259 136.224 177.784 137.453C176.309 138.683 174.125 138.479 172.895 137.006C171.664 135.532 171.868 133.35 173.343 132.121C174.818 130.891 177.002 131.095 178.232 132.568Z" fill="url(#paint14_radial_225_1505)"/>
<path style="mix-blend-mode:screen" d="M193.732 183.526C195.452 185.586 195.166 188.647 193.105 190.365C191.043 192.083 187.979 191.798 186.259 189.738C184.54 187.678 184.825 184.617 186.887 182.899C188.949 181.181 192.013 181.466 193.732 183.526Z" fill="url(#paint15_radial_225_1505)"/>
<path style="mix-blend-mode:screen" d="M49.451 196.512C50.3474 197.595 50.2007 199.199 49.1251 200.094C48.0412 200.99 46.4358 200.843 45.5394 199.769C44.643 198.694 44.7897 197.082 45.8654 196.186C46.9492 195.291 48.5546 195.437 49.451 196.512Z" fill="url(#paint16_radial_225_1505)"/>
<path style="mix-blend-mode:screen" d="M162.13 58.9691C164.623 61.9651 164.216 66.4104 161.225 68.9017C158.226 71.393 153.777 70.986 151.283 67.998C148.789 65.0019 149.197 60.5567 152.188 58.0654C155.187 55.5741 159.636 55.9811 162.13 58.9691Z" fill="url(#paint17_radial_225_1505)"/>
<path style="mix-blend-mode:screen" d="M2.45474 85.714C2.94369 86.3002 2.8622 87.1795 2.27546 87.668C1.68872 88.1564 0.808606 88.075 0.319655 87.4888C-0.169295 86.9026 -0.0878032 86.0234 0.498937 85.5349C1.08568 85.0464 1.96579 85.1278 2.45474 85.714Z" fill="url(#paint18_radial_225_1505)"/>
<path style="mix-blend-mode:screen" d="M76.2304 61.1648C76.2365 60.27 75.5154 59.5397 74.6198 59.5336C73.7242 59.5275 72.9932 60.248 72.9871 61.1427C72.981 62.0375 73.7021 62.7678 74.5977 62.7739C75.4933 62.78 76.2243 62.0596 76.2304 61.1648Z" fill="url(#paint19_radial_225_1505)"/>
<path style="mix-blend-mode:screen" d="M258.901 49.9483C260.498 51.8615 260.237 54.7029 258.322 56.2986C256.407 57.8944 253.563 57.6339 251.966 55.7206C250.369 53.8073 250.63 50.9659 252.545 49.3702C254.46 47.7745 257.304 48.035 258.901 49.9483Z" fill="url(#paint20_radial_225_1505)"/>
<path style="mix-blend-mode:screen" d="M52.1403 107.476C53.819 109.487 53.542 112.475 51.5291 114.152C49.5163 115.829 46.5255 115.553 44.8468 113.542C43.1681 111.531 43.4451 108.543 45.458 106.866C47.4708 105.188 50.4616 105.465 52.1403 107.476Z" fill="url(#paint21_radial_225_1505)"/>
<path style="mix-blend-mode:screen" d="M49.4347 5.35716C50.2496 6.34228 50.1192 7.79961 49.1413 8.61377C48.1553 9.42792 46.6966 9.29765 45.8817 8.32067C45.0668 7.33555 45.1971 5.87821 46.175 5.06406C47.1611 4.24991 48.6198 4.38017 49.4347 5.35716Z" fill="url(#paint22_radial_225_1505)"/>
</g>
<defs>
<radialGradient id="paint0_radial_225_1505" cx="0" cy="0" r="1" gradientUnits="userSpaceOnUse" gradientTransform="translate(74.6213 209.698) rotate(-39.7635) scale(3.00589 3.00538)">
<stop offset="0.08" stop-color="#FFFFF2"/>
<stop offset="0.12" stop-color="#D4D4C9" stop-opacity="0.83"/>
<stop offset="0.17" stop-color="#A8A89F" stop-opacity="0.66"/>
<stop offset="0.23" stop-color="#7F7F79" stop-opacity="0.5"/>
<stop offset="0.29" stop-color="#5D5D58" stop-opacity="0.37"/>
<stop offset="0.35" stop-color="#40403C" stop-opacity="0.25"/>
<stop offset="0.42" stop-color="#282826" stop-opacity="0.16"/>
<stop offset="0.5" stop-color="#161615" stop-opacity="0.09"/>
<stop offset="0.6" stop-color="#090909" stop-opacity="0.04"/>
<stop offset="0.72" stop-color="#020202" stop-opacity="0"/>
<stop offset="1" stop-opacity="0"/>
</radialGradient>
<radialGradient id="paint1_radial_225_1505" cx="0" cy="0" r="1" gradientUnits="userSpaceOnUse" gradientTransform="translate(89.6784 137.284) rotate(-39.7635) scale(5.20532 5.20443)">
<stop offset="0.08" stop-color="#FFFFF2"/>
<stop offset="0.12" stop-color="#D4D4C9" stop-opacity="0.83"/>
<stop offset="0.17" stop-color="#A8A89F" stop-opacity="0.66"/>
<stop offset="0.23" stop-color="#7F7F79" stop-opacity="0.5"/>
<stop offset="0.29" stop-color="#5D5D58" stop-opacity="0.37"/>
<stop offset="0.35" stop-color="#40403C" stop-opacity="0.25"/>
<stop offset="0.42" stop-color="#282826" stop-opacity="0.16"/>
<stop offset="0.5" stop-color="#161615" stop-opacity="0.09"/>
<stop offset="0.6" stop-color="#090909" stop-opacity="0.04"/>
<stop offset="0.72" stop-color="#020202" stop-opacity="0"/>
<stop offset="1" stop-opacity="0"/>
</radialGradient>
<radialGradient id="paint2_radial_225_1505" cx="0" cy="0" r="1" gradientUnits="userSpaceOnUse" gradientTransform="translate(151.763 223.651) rotate(-39.7635) scale(3.35617 3.35559)">
<stop offset="0.08" stop-color="#FFFFF2"/>
<stop offset="0.12" stop-color="#D4D4C9" stop-opacity="0.83"/>
<stop offset="0.17" stop-color="#A8A89F" stop-opacity="0.66"/>
<stop offset="0.23" stop-color="#7F7F79" stop-opacity="0.5"/>
<stop offset="0.29" stop-color="#5D5D58" stop-opacity="0.37"/>
<stop offset="0.35" stop-color="#40403C" stop-opacity="0.25"/>
<stop offset="0.42" stop-color="#282826" stop-opacity="0.16"/>
<stop offset="0.5" stop-color="#161615" stop-opacity="0.09"/>
<stop offset="0.6" stop-color="#090909" stop-opacity="0.04"/>
<stop offset="0.72" stop-color="#020202" stop-opacity="0"/>
<stop offset="1" stop-opacity="0"/>
</radialGradient>
<radialGradient id="paint3_radial_225_1505" cx="0" cy="0" r="1" gradientUnits="userSpaceOnUse" gradientTransform="translate(208.33 29.8981) rotate(-39.7635) scale(7.16851 7.16729)">
<stop offset="0.08" stop-color="#FFFFF2"/>
<stop offset="0.12" stop-color="#D4D4C9" stop-opacity="0.83"/>
<stop offset="0.17" stop-color="#A8A89F" stop-opacity="0.66"/>
<stop offset="0.23" stop-color="#7F7F79" stop-opacity="0.5"/>
<stop offset="0.29" stop-color="#5D5D58" stop-opacity="0.37"/>
<stop offset="0.35" stop-color="#40403C" stop-opacity="0.25"/>
<stop offset="0.42" stop-color="#282826" stop-opacity="0.16"/>
<stop offset="0.5" stop-color="#161615" stop-opacity="0.09"/>
<stop offset="0.6" stop-color="#090909" stop-opacity="0.04"/>
<stop offset="0.72" stop-color="#020202" stop-opacity="0"/>
<stop offset="1" stop-opacity="0"/>
</radialGradient>
<radialGradient id="paint4_radial_225_1505" cx="0" cy="0" r="1" gradientUnits="userSpaceOnUse" gradientTransform="translate(59.068 61.154) rotate(-39.7635) scale(7.29071 7.28946)">
<stop offset="0.08" stop-color="#FFFFF2"/>
<stop offset="0.12" stop-color="#D4D4C9" stop-opacity="0.83"/>
<stop offset="0.17" stop-color="#A8A89F" stop-opacity="0.66"/>
<stop offset="0.23" stop-color="#7F7F79" stop-opacity="0.5"/>
<stop offset="0.29" stop-color="#5D5D58" stop-opacity="0.37"/>
<stop offset="0.35" stop-color="#40403C" stop-opacity="0.25"/>
<stop offset="0.42" stop-color="#282826" stop-opacity="0.16"/>
<stop offset="0.5" stop-color="#161615" stop-opacity="0.09"/>
<stop offset="0.6" stop-color="#090909" stop-opacity="0.04"/>
<stop offset="0.72" stop-color="#020202" stop-opacity="0"/>
<stop offset="1" stop-opacity="0"/>
</radialGradient>
<radialGradient id="paint5_radial_225_1505" cx="0" cy="0" r="1" gradientUnits="userSpaceOnUse" gradientTransform="translate(118.168 153.152) rotate(-39.7636) scale(6.82638 6.82522)">
<stop offset="0.08" stop-color="#FFFFF2"/>
<stop offset="0.12" stop-color="#D4D4C9" stop-opacity="0.83"/>
<stop offset="0.17" stop-color="#A8A89F" stop-opacity="0.66"/>
<stop offset="0.23" stop-color="#7F7F79" stop-opacity="0.5"/>
<stop offset="0.29" stop-color="#5D5D58" stop-opacity="0.37"/>
<stop offset="0.35" stop-color="#40403C" stop-opacity="0.25"/>
<stop offset="0.42" stop-color="#282826" stop-opacity="0.16"/>
<stop offset="0.5" stop-color="#161615" stop-opacity="0.09"/>
<stop offset="0.6" stop-color="#090909" stop-opacity="0.04"/>
<stop offset="0.72" stop-color="#020202" stop-opacity="0"/>
<stop offset="1" stop-opacity="0"/>
</radialGradient>
<radialGradient id="paint6_radial_225_1505" cx="0" cy="0" r="1" gradientUnits="userSpaceOnUse" gradientTransform="translate(151.76 7.17682) rotate(-39.7635) scale(7.16852 7.16729)">
<stop offset="0.08" stop-color="#FFFFF2"/>
<stop offset="0.12" stop-color="#D4D4C9" stop-opacity="0.83"/>
<stop offset="0.17" stop-color="#A8A89F" stop-opacity="0.66"/>
<stop offset="0.23" stop-color="#7F7F79" stop-opacity="0.5"/>
<stop offset="0.29" stop-color="#5D5D58" stop-opacity="0.37"/>
<stop offset="0.35" stop-color="#40403C" stop-opacity="0.25"/>
<stop offset="0.42" stop-color="#282826" stop-opacity="0.16"/>
<stop offset="0.5" stop-color="#161615" stop-opacity="0.09"/>
<stop offset="0.6" stop-color="#090909" stop-opacity="0.04"/>
<stop offset="0.72" stop-color="#020202" stop-opacity="0"/>
<stop offset="1" stop-opacity="0"/>
</radialGradient>
<radialGradient id="paint7_radial_225_1505" cx="0" cy="0" r="1" gradientUnits="userSpaceOnUse" gradientTransform="translate(89.6873 8.36083) rotate(-39.7636) scale(3.24212 3.24157)">
<stop offset="0.08" stop-color="#FFFFF2"/>
<stop offset="0.12" stop-color="#D4D4C9" stop-opacity="0.83"/>
<stop offset="0.17" stop-color="#A8A89F" stop-opacity="0.66"/>
<stop offset="0.23" stop-color="#7F7F79" stop-opacity="0.5"/>
<stop offset="0.29" stop-color="#5D5D58" stop-opacity="0.37"/>
<stop offset="0.35" stop-color="#40403C" stop-opacity="0.25"/>
<stop offset="0.42" stop-color="#282826" stop-opacity="0.16"/>
<stop offset="0.5" stop-color="#161615" stop-opacity="0.09"/>
<stop offset="0.6" stop-color="#090909" stop-opacity="0.04"/>
<stop offset="0.72" stop-color="#020202" stop-opacity="0"/>
<stop offset="1" stop-opacity="0"/>
</radialGradient>
<radialGradient id="paint8_radial_225_1505" cx="0" cy="0" r="1" gradientUnits="userSpaceOnUse" gradientTransform="translate(163.999 86.6101) rotate(-39.7635) scale(1.27078 1.27057)">
<stop offset="0.08" stop-color="#FFFFF2"/>
<stop offset="0.12" stop-color="#D4D4C9" stop-opacity="0.83"/>
<stop offset="0.17" stop-color="#A8A89F" stop-opacity="0.66"/>
<stop offset="0.23" stop-color="#7F7F79" stop-opacity="0.5"/>
<stop offset="0.29" stop-color="#5D5D58" stop-opacity="0.37"/>
<stop offset="0.35" stop-color="#40403C" stop-opacity="0.25"/>
<stop offset="0.42" stop-color="#282826" stop-opacity="0.16"/>
<stop offset="0.5" stop-color="#161615" stop-opacity="0.09"/>
<stop offset="0.6" stop-color="#090909" stop-opacity="0.04"/>
<stop offset="0.72" stop-color="#020202" stop-opacity="0"/>
<stop offset="1" stop-opacity="0"/>
</radialGradient>
<radialGradient id="paint9_radial_225_1505" cx="0" cy="0" r="1" gradientUnits="userSpaceOnUse" gradientTransform="translate(93.4481 83.7441) rotate(-39.7635) scale(2.89184 2.89135)">
<stop offset="0.08" stop-color="#FFFFF2"/>
<stop offset="0.12" stop-color="#D4D4C9" stop-opacity="0.83"/>
<stop offset="0.17" stop-color="#A8A89F" stop-opacity="0.66"/>
<stop offset="0.23" stop-color="#7F7F79" stop-opacity="0.5"/>
<stop offset="0.29" stop-color="#5D5D58" stop-opacity="0.37"/>
<stop offset="0.35" stop-color="#40403C" stop-opacity="0.25"/>
<stop offset="0.42" stop-color="#282826" stop-opacity="0.16"/>
<stop offset="0.5" stop-color="#161615" stop-opacity="0.09"/>
<stop offset="0.6" stop-color="#090909" stop-opacity="0.04"/>
<stop offset="0.72" stop-color="#020202" stop-opacity="0"/>
<stop offset="1" stop-opacity="0"/>
</radialGradient>
<radialGradient id="paint10_radial_225_1505" cx="0" cy="0" r="1" gradientUnits="userSpaceOnUse" gradientTransform="translate(115.555 172.268) rotate(-39.7634) scale(1.38483 1.38459)">
<stop offset="0.08" stop-color="#FFFFF2"/>
<stop offset="0.12" stop-color="#D4D4C9" stop-opacity="0.83"/>
<stop offset="0.17" stop-color="#A8A89F" stop-opacity="0.66"/>
<stop offset="0.23" stop-color="#7F7F79" stop-opacity="0.5"/>
<stop offset="0.29" stop-color="#5D5D58" stop-opacity="0.37"/>
<stop offset="0.35" stop-color="#40403C" stop-opacity="0.25"/>
<stop offset="0.42" stop-color="#282826" stop-opacity="0.16"/>
<stop offset="0.5" stop-color="#161615" stop-opacity="0.09"/>
<stop offset="0.6" stop-color="#090909" stop-opacity="0.04"/>
<stop offset="0.72" stop-color="#020202" stop-opacity="0"/>
<stop offset="1" stop-opacity="0"/>
</radialGradient>
<radialGradient id="paint11_radial_225_1505" cx="0" cy="0" r="1" gradientUnits="userSpaceOnUse" gradientTransform="translate(226.68 165.488) rotate(-39.7635) scale(3.00589 3.00538)">
<stop offset="0.08" stop-color="#FFFFF2"/>
<stop offset="0.12" stop-color="#D4D4C9" stop-opacity="0.83"/>
<stop offset="0.17" stop-color="#A8A89F" stop-opacity="0.66"/>
<stop offset="0.23" stop-color="#7F7F79" stop-opacity="0.5"/>
<stop offset="0.29" stop-color="#5D5D58" stop-opacity="0.37"/>
<stop offset="0.35" stop-color="#40403C" stop-opacity="0.25"/>
<stop offset="0.42" stop-color="#282826" stop-opacity="0.16"/>
<stop offset="0.5" stop-color="#161615" stop-opacity="0.09"/>
<stop offset="0.6" stop-color="#090909" stop-opacity="0.04"/>
<stop offset="0.72" stop-color="#020202" stop-opacity="0"/>
<stop offset="1" stop-opacity="0"/>
</radialGradient>
<radialGradient id="paint12_radial_225_1505" cx="0" cy="0" r="1" gradientUnits="userSpaceOnUse" gradientTransform="translate(199.869 75.0501) rotate(-39.7635) scale(3.82049 3.81984)">
<stop offset="0.08" stop-color="#FFFFF2"/>
<stop offset="0.12" stop-color="#D4D4C9" stop-opacity="0.83"/>
<stop offset="0.17" stop-color="#A8A89F" stop-opacity="0.66"/>
<stop offset="0.23" stop-color="#7F7F79" stop-opacity="0.5"/>
<stop offset="0.29" stop-color="#5D5D58" stop-opacity="0.37"/>
<stop offset="0.35" stop-color="#40403C" stop-opacity="0.25"/>
<stop offset="0.42" stop-color="#282826" stop-opacity="0.16"/>
<stop offset="0.5" stop-color="#161615" stop-opacity="0.09"/>
<stop offset="0.6" stop-color="#090909" stop-opacity="0.04"/>
<stop offset="0.72" stop-color="#020202" stop-opacity="0"/>
<stop offset="1" stop-opacity="0"/>
</radialGradient>
<radialGradient id="paint13_radial_225_1505" cx="0" cy="0" r="1" gradientUnits="userSpaceOnUse" gradientTransform="translate(85.3348 7.17234) rotate(-39.7636) scale(6.13397 6.13292)">
<stop offset="0.08" stop-color="#FFFFF2"/>
<stop offset="0.12" stop-color="#D4D4C9" stop-opacity="0.83"/>
<stop offset="0.17" stop-color="#A8A89F" stop-opacity="0.66"/>
<stop offset="0.23" stop-color="#7F7F79" stop-opacity="0.5"/>
<stop offset="0.29" stop-color="#5D5D58" stop-opacity="0.37"/>
<stop offset="0.35" stop-color="#40403C" stop-opacity="0.25"/>
<stop offset="0.42" stop-color="#282826" stop-opacity="0.16"/>
<stop offset="0.5" stop-color="#161615" stop-opacity="0.09"/>
<stop offset="0.6" stop-color="#090909" stop-opacity="0.04"/>
<stop offset="0.72" stop-color="#020202" stop-opacity="0"/>
<stop offset="1" stop-opacity="0"/>
</radialGradient>
<radialGradient id="paint14_radial_225_1505" cx="0" cy="0" r="1" gradientUnits="userSpaceOnUse" gradientTransform="translate(175.571 134.79) rotate(-39.7635) scale(3.47021 3.46962)">
<stop offset="0.08" stop-color="#FFFFF2"/>
<stop offset="0.12" stop-color="#D4D4C9" stop-opacity="0.83"/>
<stop offset="0.17" stop-color="#A8A89F" stop-opacity="0.66"/>
<stop offset="0.23" stop-color="#7F7F79" stop-opacity="0.5"/>
<stop offset="0.29" stop-color="#5D5D58" stop-opacity="0.37"/>
<stop offset="0.35" stop-color="#40403C" stop-opacity="0.25"/>
<stop offset="0.42" stop-color="#282826" stop-opacity="0.16"/>
<stop offset="0.5" stop-color="#161615" stop-opacity="0.09"/>
<stop offset="0.6" stop-color="#090909" stop-opacity="0.04"/>
<stop offset="0.72" stop-color="#020202" stop-opacity="0"/>
<stop offset="1" stop-opacity="0"/>
</radialGradient>
<radialGradient id="paint15_radial_225_1505" cx="0" cy="0" r="1" gradientUnits="userSpaceOnUse" gradientTransform="translate(189.992 186.639) rotate(-39.7636) scale(4.85504 4.85422)">
<stop offset="0.08" stop-color="#FFFFF2"/>
<stop offset="0.12" stop-color="#D4D4C9" stop-opacity="0.83"/>
<stop offset="0.17" stop-color="#A8A89F" stop-opacity="0.66"/>
<stop offset="0.23" stop-color="#7F7F79" stop-opacity="0.5"/>
<stop offset="0.29" stop-color="#5D5D58" stop-opacity="0.37"/>
<stop offset="0.35" stop-color="#40403C" stop-opacity="0.25"/>
<stop offset="0.42" stop-color="#282826" stop-opacity="0.16"/>
<stop offset="0.5" stop-color="#161615" stop-opacity="0.09"/>
<stop offset="0.6" stop-color="#090909" stop-opacity="0.04"/>
<stop offset="0.72" stop-color="#020202" stop-opacity="0"/>
<stop offset="1" stop-opacity="0"/>
</radialGradient>
<radialGradient id="paint16_radial_225_1505" cx="0" cy="0" r="1" gradientUnits="userSpaceOnUse" gradientTransform="translate(47.4972 198.14) rotate(-39.7636) scale(2.54156 2.54113)">
<stop offset="0.08" stop-color="#FFFFF2"/>
<stop offset="0.12" stop-color="#D4D4C9" stop-opacity="0.83"/>
<stop offset="0.17" stop-color="#A8A89F" stop-opacity="0.66"/>
<stop offset="0.23" stop-color="#7F7F79" stop-opacity="0.5"/>
<stop offset="0.29" stop-color="#5D5D58" stop-opacity="0.37"/>
<stop offset="0.35" stop-color="#40403C" stop-opacity="0.25"/>
<stop offset="0.42" stop-color="#282826" stop-opacity="0.16"/>
<stop offset="0.5" stop-color="#161615" stop-opacity="0.09"/>
<stop offset="0.6" stop-color="#090909" stop-opacity="0.04"/>
<stop offset="0.72" stop-color="#020202" stop-opacity="0"/>
<stop offset="1" stop-opacity="0"/>
</radialGradient>
<radialGradient id="paint17_radial_225_1505" cx="0" cy="0" r="1" gradientUnits="userSpaceOnUse" gradientTransform="translate(156.706 63.4873) rotate(-39.7635) scale(7.05447 7.05327)">
<stop offset="0.08" stop-color="#FFFFF2"/>
<stop offset="0.12" stop-color="#D4D4C9" stop-opacity="0.83"/>
<stop offset="0.17" stop-color="#A8A89F" stop-opacity="0.66"/>
<stop offset="0.23" stop-color="#7F7F79" stop-opacity="0.5"/>
<stop offset="0.29" stop-color="#5D5D58" stop-opacity="0.37"/>
<stop offset="0.35" stop-color="#40403C" stop-opacity="0.25"/>
<stop offset="0.42" stop-color="#282826" stop-opacity="0.16"/>
<stop offset="0.5" stop-color="#161615" stop-opacity="0.09"/>
<stop offset="0.6" stop-color="#090909" stop-opacity="0.04"/>
<stop offset="0.72" stop-color="#020202" stop-opacity="0"/>
<stop offset="1" stop-opacity="0"/>
</radialGradient>
<radialGradient id="paint18_radial_225_1505" cx="0" cy="0" r="1" gradientUnits="userSpaceOnUse" gradientTransform="translate(1.39383 86.6077) rotate(-39.7636) scale(1.38483 1.38459)">
<stop offset="0.08" stop-color="#FFFFF2"/>
<stop offset="0.12" stop-color="#D4D4C9" stop-opacity="0.83"/>
<stop offset="0.17" stop-color="#A8A89F" stop-opacity="0.66"/>
<stop offset="0.23" stop-color="#7F7F79" stop-opacity="0.5"/>
<stop offset="0.29" stop-color="#5D5D58" stop-opacity="0.37"/>
<stop offset="0.35" stop-color="#40403C" stop-opacity="0.25"/>
<stop offset="0.42" stop-color="#282826" stop-opacity="0.16"/>
<stop offset="0.5" stop-color="#161615" stop-opacity="0.09"/>
<stop offset="0.6" stop-color="#090909" stop-opacity="0.04"/>
<stop offset="0.72" stop-color="#020202" stop-opacity="0"/>
<stop offset="1" stop-opacity="0"/>
</radialGradient>
<radialGradient id="paint19_radial_225_1505" cx="0" cy="0" r="1" gradientUnits="userSpaceOnUse" gradientTransform="translate(74.6074 61.1622) rotate(-39.7736) scale(1.62106 1.62079)">
<stop offset="0.08" stop-color="#FFFFF2"/>
<stop offset="0.12" stop-color="#D4D4C9" stop-opacity="0.83"/>
<stop offset="0.17" stop-color="#A8A89F" stop-opacity="0.66"/>
<stop offset="0.23" stop-color="#7F7F79" stop-opacity="0.5"/>
<stop offset="0.29" stop-color="#5D5D58" stop-opacity="0.37"/>
<stop offset="0.35" stop-color="#40403C" stop-opacity="0.25"/>
<stop offset="0.42" stop-color="#282826" stop-opacity="0.16"/>
<stop offset="0.5" stop-color="#161615" stop-opacity="0.09"/>
<stop offset="0.6" stop-color="#090909" stop-opacity="0.04"/>
<stop offset="0.72" stop-color="#020202" stop-opacity="0"/>
<stop offset="1" stop-opacity="0"/>
</radialGradient>
<radialGradient id="paint20_radial_225_1505" cx="0" cy="0" r="1" gradientUnits="userSpaceOnUse" gradientTransform="translate(255.425 52.8429) rotate(-39.7635) scale(4.51291 4.51214)">
<stop offset="0.08" stop-color="#FFFFF2"/>
<stop offset="0.12" stop-color="#D4D4C9" stop-opacity="0.83"/>
<stop offset="0.17" stop-color="#A8A89F" stop-opacity="0.66"/>
<stop offset="0.23" stop-color="#7F7F79" stop-opacity="0.5"/>
<stop offset="0.29" stop-color="#5D5D58" stop-opacity="0.37"/>
<stop offset="0.35" stop-color="#40403C" stop-opacity="0.25"/>
<stop offset="0.42" stop-color="#282826" stop-opacity="0.16"/>
<stop offset="0.5" stop-color="#161615" stop-opacity="0.09"/>
<stop offset="0.6" stop-color="#090909" stop-opacity="0.04"/>
<stop offset="0.72" stop-color="#020202" stop-opacity="0"/>
<stop offset="1" stop-opacity="0"/>
</radialGradient>
<radialGradient id="paint21_radial_225_1505" cx="0" cy="0" r="1" gradientUnits="userSpaceOnUse" gradientTransform="translate(48.4935 110.513) rotate(-39.7636) scale(4.741 4.74019)">
<stop offset="0.08" stop-color="#FFFFF2"/>
<stop offset="0.12" stop-color="#D4D4C9" stop-opacity="0.83"/>
<stop offset="0.17" stop-color="#A8A89F" stop-opacity="0.66"/>
<stop offset="0.23" stop-color="#7F7F79" stop-opacity="0.5"/>
<stop offset="0.29" stop-color="#5D5D58" stop-opacity="0.37"/>
<stop offset="0.35" stop-color="#40403C" stop-opacity="0.25"/>
<stop offset="0.42" stop-color="#282826" stop-opacity="0.16"/>
<stop offset="0.5" stop-color="#161615" stop-opacity="0.09"/>
<stop offset="0.6" stop-color="#090909" stop-opacity="0.04"/>
<stop offset="0.72" stop-color="#020202" stop-opacity="0"/>
<stop offset="1" stop-opacity="0"/>
</radialGradient>
<radialGradient id="paint22_radial_225_1505" cx="0" cy="0" r="1" gradientUnits="userSpaceOnUse" gradientTransform="translate(47.6556 6.84418) rotate(-39.7635) scale(2.31348 2.31308)">
<stop offset="0.08" stop-color="#FFFFF2"/>
<stop offset="0.12" stop-color="#D4D4C9" stop-opacity="0.83"/>
<stop offset="0.17" stop-color="#A8A89F" stop-opacity="0.66"/>
<stop offset="0.23" stop-color="#7F7F79" stop-opacity="0.5"/>
<stop offset="0.29" stop-color="#5D5D58" stop-opacity="0.37"/>
<stop offset="0.35" stop-color="#40403C" stop-opacity="0.25"/>
<stop offset="0.42" stop-color="#282826" stop-opacity="0.16"/>
<stop offset="0.5" stop-color="#161615" stop-opacity="0.09"/>
<stop offset="0.6" stop-color="#090909" stop-opacity="0.04"/>
<stop offset="0.72" stop-color="#020202" stop-opacity="0"/>
<stop offset="1" stop-opacity="0"/>
</radialGradient>
</defs>
</svg>
