<svg width="1440" height="886" viewBox="0 0 1440 886" fill="none" xmlns="http://www.w3.org/2000/svg">
<g opacity="0.75">
<path d="M-113 -114V886H-111.171V871.871H-72.0213V886H-70.1922V871.871H-31.0425V886H-29.2135V871.871H9.93623V886H11.7652V871.871H50.915V886H52.744V871.871H91.8937V886H93.7227V871.871H132.872V886H134.701V871.871H173.851V886H175.68V871.871H214.83V886H216.659V871.871H255.809V886H257.638V871.871H296.787V886H298.616V871.871H337.766V886H339.595V871.871H378.745V886H380.574V871.871H419.724V886H421.553V871.871H460.702V886H462.531V871.871H501.681V886H503.51V871.871H542.66V886H544.489V871.871H583.639V886H585.468V871.871H624.617V886H626.446V871.871H665.596V886H667.425V871.871H706.575V886H708.404V871.871H747.554V886H749.383V871.871H788.532V886H790.361V871.871H829.511V886H831.34V871.871H870.49V886H872.319V871.871H911.469V886H913.298V871.871H952.447V886H954.276V871.871H993.426V886H995.255V871.871H1034.4V886H1036.23V871.871H1075.38V886H1077.21V871.871H1116.36V886H1118.19V871.871H1157.34V886H1159.17V871.871H1198.32V886H1200.15V871.871H1239.3V886H1241.13V871.871H1280.28V886H1282.11V871.871H1321.26V886H1323.08V871.871H1362.23V886H1364.06V871.871H1403.21V886H1405.04V871.871H1444.19V886H1446.02V871.871H1485.17V886H1487V-114H1485.17V-95.0658H1446.02V-114H1444.19V-95.0658H1405.04V-114H1403.21V-95.0658H1364.06V-114H1362.23V-95.0658H1323.08V-114H1321.26V-95.0658H1282.11V-114H1280.28V-95.0658H1241.13V-114H1239.3V-95.0658H1200.15V-114H1198.32V-95.0658H1159.17V-114H1157.34V-95.0658H1118.19V-114H1116.36V-95.0658H1077.21V-114H1075.38V-95.0658H1036.23V-114H1034.4V-95.0658H995.255V-114H993.426V-95.0658H954.276V-114H952.447V-95.0658H913.298V-114H911.469V-95.0658H872.319V-114H870.49V-95.0658H831.34V-114H829.511V-95.0658H790.361V-114H788.532V-95.0658H749.383V-114H747.554V-95.0658H708.404V-114H706.575V-95.0658H667.425V-114H665.596V-95.0658H626.446V-114H624.617V-95.0658H585.468V-114H583.639V-95.0658H544.489V-114H542.66V-95.0658H503.51V-114H501.681V-95.0658H462.531V-114H460.702V-95.0658H421.553V-114H419.724V-95.0658H380.574V-114H378.745V-95.0658H339.595V-114H337.766V-95.0658H298.616V-114H296.787V-95.0658H257.638V-114H255.809V-95.0658H216.659V-114H214.83V-95.0658H175.68V-114H173.851V-95.0658H134.701V-114H132.872V-95.0658H93.7227V-114H91.8937V-95.0658H52.744V-114H50.915V-95.0658H11.7652V-114H9.93623V-95.0658H-29.2135V-114H-31.0425V-95.0658H-70.1922V-114H-72.0213V-95.0658H-111.171V-114H-113ZM1446 829.908H1485.15V870.147H1446V829.908ZM1446 787.945H1485.15V828.184H1446V787.945ZM1446 745.977H1485.15V786.216H1446V745.977ZM1446 704.014H1485.15V744.254H1446V704.014ZM1446 662.052H1485.15V702.291H1446V662.052ZM1446 620.089H1485.15V660.328H1446V620.089ZM1446 578.121H1485.15V618.36H1446V578.121ZM1446 536.158H1485.15V576.397H1446V536.158ZM1446 494.195H1485.15V534.434H1446V494.195ZM1446 452.232H1485.15V492.472H1446V452.232ZM1446 410.264H1485.15V450.503H1446V410.264ZM1446 368.302H1485.15V408.541H1446V368.302ZM1446 326.339H1485.15V366.578H1446V326.339ZM1446 284.371H1485.15V324.61H1446V284.371ZM1446 242.408H1485.15V282.647H1446V242.408ZM1446 200.445H1485.15V240.684H1446V200.445ZM1446 158.477H1485.15V198.716H1446V158.477ZM1446 116.509H1485.15V156.748H1446V116.509ZM1446 74.5462H1485.15V114.785H1446V74.5462ZM1446 32.5781H1485.15V72.8171H1446V32.5781ZM1446 -9.38473H1485.15V30.8544H1446V-9.38473ZM1446 -51.3528H1485.15V-11.1137H1446V-51.3528ZM1446 -93.3209H1485.15V-53.0818H1446V-93.3421V-93.3209ZM1405.02 829.924H1444.17V870.163H1405.02V829.924ZM1405.02 787.961H1444.17V828.2H1405.02V787.961ZM1405.02 745.993H1444.17V786.232H1405.02V745.993ZM1405.02 704.03H1444.17V744.27H1405.02V704.03ZM1405.02 662.068H1444.17V702.307H1405.02V662.068ZM1405.02 620.105H1444.17V660.344H1405.02V620.105ZM1405.02 578.137H1444.17V618.376H1405.02V578.137ZM1405.02 536.174H1444.17V576.413H1405.02V536.174ZM1405.02 494.211H1444.17V534.45H1405.02V494.211ZM1405.02 452.248H1444.17V492.487H1405.02V452.248ZM1405.02 410.28H1444.17V450.519H1405.02V410.28ZM1405.02 368.318H1444.17V408.557H1405.02V368.318ZM1405.02 326.355H1444.17V366.594H1405.02V326.355ZM1405.02 284.387H1444.17V324.626H1405.02V284.387ZM1405.02 242.424H1444.17V282.663H1405.02V242.424ZM1405.02 200.461H1444.17V240.7H1405.02V200.461ZM1405.02 158.493H1444.17V198.732H1405.02V158.493ZM1405.02 116.525H1444.17V156.764H1405.02V116.525ZM1405.02 74.5621H1444.17V114.801H1405.02V74.5621ZM1405.02 32.594H1444.17V72.8331H1405.02V32.594ZM1405.02 -9.36882H1444.17V30.8703H1405.02V-9.36882ZM1405.02 -51.3369H1444.17V-11.0978H1405.02V-51.3369ZM1405.02 -93.305H1444.17V-53.0659H1405.02V-93.3421V-93.305ZM1364.04 829.94H1403.19V870.179H1364.04V829.94ZM1364.04 787.977H1403.19V828.216H1364.04V787.977ZM1364.04 746.009H1403.19V786.248H1364.04V746.009ZM1364.04 704.046H1403.19V744.285H1364.04V704.046ZM1364.04 662.084H1403.19V702.323H1364.04V662.084ZM1364.04 620.121H1403.19V660.36H1364.04V620.121ZM1364.04 578.153H1403.19V618.392H1364.04V578.153ZM1364.04 536.19H1403.19V576.429H1364.04V536.19ZM1364.04 494.227H1403.19V534.466H1364.04V494.227ZM1364.04 452.264H1403.19V492.503H1364.04V452.264ZM1364.04 410.296H1403.19V450.535H1364.04V410.296ZM1364.04 368.333H1403.19V408.572H1364.04V368.333ZM1364.04 326.371H1403.19V366.61H1364.04V326.371ZM1364.04 284.403H1403.19V324.642H1364.04V284.403ZM1364.04 242.44H1403.19V282.679H1364.04V242.44ZM1364.04 200.477H1403.19V240.716H1364.04V200.477ZM1364.04 158.509H1403.19V198.748H1364.04V158.509ZM1364.04 116.541H1403.19V156.78H1364.04V116.541ZM1364.04 74.578H1403.19V114.817H1364.04V74.578ZM1364.04 32.6099H1403.19V72.849H1364.04V32.6099ZM1364.04 -9.35291H1403.19V30.8862H1364.04V-9.35291ZM1364.04 -51.321H1403.19V-11.0819H1364.04V-51.321ZM1364.04 -93.2891H1403.19V-53.05H1364.04V-93.3421V-93.2891ZM1323.06 829.956H1362.21V870.195H1323.06V829.956ZM1323.06 787.993H1362.21V828.232H1323.06V787.993ZM1323.06 746.025H1362.21V786.264H1323.06V746.025ZM1323.06 704.062H1362.21V744.301H1323.06V704.062ZM1323.06 662.099H1362.21V702.339H1323.06V662.099ZM1323.06 620.137H1362.21V660.376H1323.06V620.137ZM1323.06 578.169H1362.21V618.408H1323.06V578.169ZM1323.06 536.206H1362.21V576.445H1323.06V536.206ZM1323.06 494.243H1362.21V534.482H1323.06V494.243ZM1323.06 452.28H1362.21V492.519H1323.06V452.28ZM1323.06 410.312H1362.21V450.551H1323.06V410.312ZM1323.06 368.349H1362.21V408.588H1323.06V368.349ZM1323.06 326.387H1362.21V366.626H1323.06V326.387ZM1323.06 284.418H1362.21V324.658H1323.06V284.418ZM1323.06 242.456H1362.21V282.695H1323.06V242.456ZM1323.06 200.493H1362.21V240.732H1323.06V200.493ZM1323.06 158.525H1362.21V198.764H1323.06V158.525ZM1323.06 116.557H1362.21V156.796H1323.06V116.557ZM1323.06 74.5939H1362.21V114.833H1323.06V74.5939ZM1323.06 32.6258H1362.21V72.8649H1323.06V32.6258ZM1323.06 -9.337H1362.21V30.9021H1323.06V-9.337ZM1323.06 -51.3051H1362.21V-11.066H1323.06V-51.3051ZM1323.06 -93.2732H1362.21V-53.0341H1323.06V-93.3421V-93.2732ZM1282.08 829.972H1321.23V870.211H1282.08V829.972ZM1282.08 788.009H1321.23V828.248H1282.08V788.009ZM1282.08 746.041H1321.23V786.28H1282.08V746.041ZM1282.08 704.078H1321.23V744.317H1282.08V704.078ZM1282.08 662.115H1321.23V702.354H1282.08V662.115ZM1282.08 620.153H1321.23V660.392H1282.08V620.153ZM1282.08 578.184H1321.23V618.424H1282.08V578.184ZM1282.08 536.222H1321.23V576.461H1282.08V536.222ZM1282.08 494.259H1321.23V534.498H1282.08V494.259ZM1282.08 452.296H1321.23V492.535H1282.08V452.296ZM1282.08 410.328H1321.23V450.567H1282.08V410.328ZM1282.08 368.365H1321.23V408.604H1282.08V368.365ZM1282.08 326.402H1321.23V366.642H1282.08V326.402ZM1282.08 284.434H1321.23V324.673H1282.08V284.434ZM1282.08 242.472H1321.23V282.711H1282.08V242.472ZM1282.08 200.509H1321.23V240.748H1282.08V200.509ZM1282.08 158.541H1321.23V198.78H1282.08V158.541ZM1282.08 116.573H1321.23V156.812H1282.08V116.573ZM1282.08 74.6098H1321.23V114.849H1282.08V74.6098ZM1282.08 32.6417H1321.23V72.8808H1282.08V32.6417ZM1282.08 -9.32109H1321.23V30.918H1282.08V-9.32109ZM1282.08 -51.2892H1321.23V-11.0501H1282.08V-51.2892ZM1282.08 -93.2573H1321.23V-53.0182H1282.08V-93.3421V-93.2573ZM1241.11 829.988H1280.25V870.227H1241.11V829.988ZM1241.11 788.025H1280.25V828.264H1241.11V788.025ZM1241.11 746.057H1280.25V786.296H1241.11V746.057ZM1241.11 704.094H1280.25V744.333H1241.11V704.094ZM1241.11 662.131H1280.25V702.37H1241.11V662.131ZM1241.11 620.168H1280.25V660.408H1241.11V620.168ZM1241.11 578.2H1280.25V618.439H1241.11V578.2ZM1241.11 536.238H1280.25V576.477H1241.11V536.238ZM1241.11 494.275H1280.25V534.514H1241.11V494.275ZM1241.11 452.312H1280.25V492.551H1241.11V452.312ZM1241.11 410.344H1280.25V450.583H1241.11V410.344ZM1241.11 368.381H1280.25V408.62H1241.11V368.381ZM1241.11 326.418H1280.25V366.657H1241.11V326.418ZM1241.11 284.45H1280.25V324.689H1241.11V284.45ZM1241.11 242.487H1280.25V282.727H1241.11V242.487ZM1241.11 200.525H1280.25V240.764H1241.11V200.525ZM1241.11 158.557H1280.25V198.796H1241.11V158.557ZM1241.11 116.588H1280.25V156.828H1241.11V116.588ZM1241.11 74.6257H1280.25V114.865H1241.11V74.6257ZM1241.11 32.6576H1280.25V72.8967H1241.11V32.6576ZM1241.11 -9.30518H1280.25V30.9339H1241.11V-9.30518ZM1241.11 -51.2733H1280.25V-11.0342H1241.11V-51.2733ZM1241.11 -93.2414H1280.25V-53.0023H1241.11V-93.3421V-93.2414ZM1200.13 830.004H1239.28V870.243H1200.13V830.004ZM1200.13 788.041H1239.28V828.28H1200.13V788.041ZM1200.13 746.073H1239.28V786.312H1200.13V746.073ZM1200.13 704.11H1239.28V744.349H1200.13V704.11ZM1200.13 662.147H1239.28V702.386H1200.13V662.147ZM1200.13 620.184H1239.28V660.424H1200.13V620.184ZM1200.13 578.216H1239.28V618.455H1200.13V578.216ZM1200.13 536.254H1239.28V576.493H1200.13V536.254ZM1200.13 494.291H1239.28V534.53H1200.13V494.291ZM1200.13 452.328H1239.28V492.567H1200.13V452.328ZM1200.13 410.36H1239.28V450.599H1200.13V410.36ZM1200.13 368.397H1239.28V408.636H1200.13V368.397ZM1200.13 326.434H1239.28V366.673H1200.13V326.434ZM1200.13 284.466H1239.28V324.705H1200.13V284.466ZM1200.13 242.503H1239.28V282.742H1200.13V242.503ZM1200.13 200.541H1239.28V240.78H1200.13V200.541ZM1200.13 158.572H1239.28V198.812H1200.13V158.572ZM1200.13 116.604H1239.28V156.844H1200.13V116.604ZM1200.13 74.6416H1239.28V114.881H1200.13V74.6416ZM1200.13 32.6735H1239.28V72.9126H1200.13V32.6735ZM1200.13 -9.28927H1239.28V30.9498H1200.13V-9.28927ZM1200.13 -51.2574H1239.28V-11.0183H1200.13V-51.2574ZM1200.13 -93.2255H1239.28V-52.9864H1200.13V-93.3421V-93.2255ZM1159.15 830.02H1198.3V870.259H1159.15V830.02ZM1159.15 788.057H1198.3V828.296H1159.15V788.057ZM1159.15 746.089H1198.3V786.328H1159.15V746.089ZM1159.15 704.126H1198.3V744.365H1159.15V704.126ZM1159.15 662.163H1198.3V702.402H1159.15V662.163ZM1159.15 620.2H1198.3V660.439H1159.15V620.2ZM1159.15 578.232H1198.3V618.471H1159.15V578.232ZM1159.15 536.269H1198.3V576.508H1159.15V536.269ZM1159.15 494.307H1198.3V534.546H1159.15V494.307ZM1159.15 452.344H1198.3V492.583H1159.15V452.344ZM1159.15 410.376H1198.3V450.615H1159.15V410.376ZM1159.15 368.413H1198.3V408.652H1159.15V368.413ZM1159.15 326.45H1198.3V366.689H1159.15V326.45ZM1159.15 284.482H1198.3V324.721H1159.15V284.482ZM1159.15 242.519H1198.3V282.758H1159.15V242.519ZM1159.15 200.557H1198.3V240.796H1159.15V200.557ZM1159.15 158.588H1198.3V198.828H1159.15V158.588ZM1159.15 116.62H1198.3V156.859H1159.15V116.62ZM1159.15 74.6575H1198.3V114.897H1159.15V74.6575ZM1159.15 32.6894H1198.3V72.9285H1159.15V32.6894ZM1159.15 -9.27335H1198.3V30.9657H1159.15V-9.27335ZM1159.15 -51.2414H1198.3V-11.0024H1159.15V-51.2414ZM1159.15 -93.2095H1198.3V-52.9704H1159.15V-93.3421V-93.2095ZM1118.17 830.035H1157.32V870.275H1118.17V830.035ZM1118.17 788.073H1157.32V828.312H1118.17V788.073ZM1118.17 746.105H1157.32V786.344H1118.17V746.105ZM1118.17 704.142H1157.32V744.381H1118.17V704.142ZM1118.17 662.179H1157.32V702.418H1118.17V662.179ZM1118.17 620.216H1157.32V660.455H1118.17V620.216ZM1118.17 578.248H1157.32V618.487H1118.17V578.248ZM1118.17 536.285H1157.32V576.524H1118.17V536.285ZM1118.17 494.323H1157.32V534.562H1118.17V494.323ZM1118.17 452.36H1157.32V492.599H1118.17V452.36ZM1118.17 410.392H1157.32V450.631H1118.17V410.392ZM1118.17 368.429H1157.32V408.668H1118.17V368.429ZM1118.17 326.466H1157.32V366.705H1118.17V326.466ZM1118.17 284.498H1157.32V324.737H1118.17V284.498ZM1118.17 242.535H1157.32V282.774H1118.17V242.535ZM1118.17 200.572H1157.32V240.812H1118.17V200.572ZM1118.17 158.604H1157.32V198.843H1118.17V158.604ZM1118.17 116.636H1157.32V156.875H1118.17V116.636ZM1118.17 74.6734H1157.32V114.913H1118.17V74.6734ZM1118.17 32.7053H1157.32V72.9444H1118.17V32.7053ZM1118.17 -9.25744H1157.32V30.9816H1118.17V-9.25744ZM1118.17 -51.2255H1157.32V-10.9864H1118.17V-51.2255ZM1118.17 -93.1936H1157.32V-52.9545H1118.17V-93.3421V-93.1936ZM1077.19 830.051H1116.34V870.29H1077.19V830.051ZM1077.19 788.089H1116.34V828.328H1077.19V788.089ZM1077.19 746.12H1116.34V786.36H1077.19V746.12ZM1077.19 704.158H1116.34V744.397H1077.19V704.158ZM1077.19 662.195H1116.34V702.434H1077.19V662.195ZM1077.19 620.232H1116.34V660.471H1077.19V620.232ZM1077.19 578.264H1116.34V618.503H1077.19V578.264ZM1077.19 536.301H1116.34V576.54H1077.19V536.301ZM1077.19 494.338H1116.34V534.578H1077.19V494.338ZM1077.19 452.376H1116.34V492.615H1077.19V452.376ZM1077.19 410.408H1116.34V450.647H1077.19V410.408ZM1077.19 368.445H1116.34V408.684H1077.19V368.445ZM1077.19 326.482H1116.34V366.721H1077.19V326.482ZM1077.19 284.514H1116.34V324.753H1077.19V284.514ZM1077.19 242.551H1116.34V282.79H1077.19V242.551ZM1077.19 200.588H1116.34V240.827H1077.19V200.588ZM1077.19 158.62H1116.34V198.859H1077.19V158.62ZM1077.19 116.652H1116.34V156.891H1077.19V116.652ZM1077.19 74.6893H1116.34V114.928H1077.19V74.6893ZM1077.19 32.7213H1116.34V72.9604H1077.19V32.7213ZM1077.19 -9.24153H1116.34V30.9976H1077.19V-9.24153ZM1077.19 -51.2096H1116.34V-10.9705H1077.19V-51.2096ZM1077.19 -93.1777H1116.34V-52.9386H1077.19V-93.3421V-93.1777ZM1036.21 830.067H1075.36V870.306H1036.21V830.067ZM1036.21 788.105H1075.36V828.344H1036.21V788.105ZM1036.21 746.136H1075.36V786.376H1036.21V746.136ZM1036.21 704.174H1075.36V744.413H1036.21V704.174ZM1036.21 662.211H1075.36V702.45H1036.21V662.211ZM1036.21 620.248H1075.36V660.487H1036.21V620.248ZM1036.21 578.28H1075.36V618.519H1036.21V578.28ZM1036.21 536.317H1075.36V576.556H1036.21V536.317ZM1036.21 494.354H1075.36V534.593H1036.21V494.354ZM1036.21 452.392H1075.36V492.631H1036.21V452.392ZM1036.21 410.423H1075.36V450.663H1036.21V410.423ZM1036.21 368.461H1075.36V408.7H1036.21V368.461ZM1036.21 326.498H1075.36V366.737H1036.21V326.498ZM1036.21 284.53H1075.36V324.769H1036.21V284.53ZM1036.21 242.567H1075.36V282.806H1036.21V242.567ZM1036.21 200.604H1075.36V240.843H1036.21V200.604ZM1036.21 158.636H1075.36V198.875H1036.21V158.636ZM1036.21 116.668H1075.36V156.907H1036.21V116.668ZM1036.21 74.7053H1075.36V114.944H1036.21V74.7053ZM1036.21 32.7372H1075.36V72.9763H1036.21V32.7372ZM1036.21 -9.22562H1075.36V31.0135H1036.21V-9.22562ZM1036.21 -51.1937H1075.36V-10.9546H1036.21V-51.1937ZM1036.21 -93.1618H1075.36V-52.9227H1036.21V-93.3421V-93.1618ZM995.233 830.083H1034.38V870.322H995.233V830.083ZM995.233 788.12H1034.38V828.36H995.233V788.12ZM995.233 746.152H1034.38V786.391H995.233V746.152ZM995.233 704.19H1034.38V744.429H995.233V704.19ZM995.233 662.227H1034.38V702.466H995.233V662.227ZM995.233 620.264H1034.38V660.503H995.233V620.264ZM995.233 578.296H1034.38V618.535H995.233V578.296ZM995.233 536.333H1034.38V576.572H995.233V536.333ZM995.233 494.37H1034.38V534.609H995.233V494.37ZM995.233 452.407H1034.38V492.647H995.233V452.407ZM995.233 410.439H1034.38V450.678H995.233V410.439ZM995.233 368.477H1034.38V408.716H995.233V368.477ZM995.233 326.514H1034.38V366.753H995.233V326.514ZM995.233 284.546H1034.38V324.785H995.233V284.546ZM995.233 242.583H1034.38V282.822H995.233V242.583ZM995.233 200.62H1034.38V240.859H995.233V200.62ZM995.233 158.652H1034.38V198.891H995.233V158.652ZM995.233 116.684H1034.38V156.923H995.233V116.684ZM995.233 74.7212H1034.38V114.96H995.233V74.7212ZM995.233 32.7531H1034.38V72.9922H995.233V32.7531ZM995.233 -9.20971H1034.38V31.0294H995.233V-9.20971ZM995.233 -51.1778H1034.38V-10.9387H995.233V-51.1778ZM995.233 -93.1459H1034.38V-52.9068H995.233V-93.3421V-93.1459ZM954.254 830.099H993.404V870.338H954.254V830.099ZM954.254 788.136H993.404V828.375H954.254V788.136ZM954.254 746.168H993.404V786.407H954.254V746.168ZM954.254 704.205H993.404V744.445H954.254V704.205ZM954.254 662.243H993.404V702.482H954.254V662.243ZM954.254 620.28H993.404V660.519H954.254V620.28ZM954.254 578.312H993.404V618.551H954.254V578.312ZM954.254 536.349H993.404V576.588H954.254V536.349ZM954.254 494.386H993.404V534.625H954.254V494.386ZM954.254 452.423H993.404V492.662H954.254V452.423ZM954.254 410.455H993.404V450.694H954.254V410.455ZM954.254 368.493H993.404V408.732H954.254V368.493ZM954.254 326.53H993.404V366.769H954.254V326.53ZM954.254 284.562H993.404V324.801H954.254V284.562ZM954.254 242.599H993.404V282.838H954.254V242.599ZM954.254 200.636H993.404V240.875H954.254V200.636ZM954.254 158.668H993.404V198.907H954.254V158.668ZM954.254 116.7H993.404V156.939H954.254V116.7ZM954.254 74.7371H993.404V114.976H954.254V74.7371ZM954.254 32.769H993.404V73.0081H954.254V32.769ZM954.254 -9.1938H993.404V31.0453H954.254V-9.1938ZM954.254 -51.1619H993.404V-10.9228H954.254V-51.1619ZM954.254 -93.13H993.404V-52.8909H954.254V-93.3421V-93.13ZM913.275 830.115H952.425V870.354H913.275V830.115ZM913.275 788.152H952.425V828.391H913.275V788.152ZM913.275 746.184H952.425V786.423H913.275V746.184ZM913.275 704.221H952.425V744.46H913.275V704.221ZM913.275 662.259H952.425V702.498H913.275V662.259ZM913.275 620.296H952.425V660.535H913.275V620.296ZM913.275 578.328H952.425V618.567H913.275V578.328ZM913.275 536.365H952.425V576.604H913.275V536.365ZM913.275 494.402H952.425V534.641H913.275V494.402ZM913.275 452.439H952.425V492.678H913.275V452.439ZM913.275 410.471H952.425V450.71H913.275V410.471ZM913.275 368.508H952.425V408.748H913.275V368.508ZM913.275 326.546H952.425V366.785H913.275V326.546ZM913.275 284.578H952.425V324.817H913.275V284.578ZM913.275 242.615H952.425V282.854H913.275V242.615ZM913.275 200.652H952.425V240.891H913.275V200.652ZM913.275 158.684H952.425V198.923H913.275V158.684ZM913.275 116.716H952.425V156.955H913.275V116.716ZM913.275 74.753H952.425V114.992H913.275V74.753ZM913.275 32.7849H952.425V73.024H913.275V32.7849ZM913.275 -9.17789H952.425V31.0612H913.275V-9.17789ZM913.275 -51.146H952.425V-10.9069H913.275V-51.146ZM913.275 -93.1141H952.425V-52.875H913.275V-93.3421V-93.1141ZM872.296 830.131H911.446V870.37H872.296V830.131ZM872.296 788.168H911.446V828.407H872.296V788.168ZM872.296 746.2H911.446V786.439H872.296V746.2ZM872.296 704.237H911.446V744.476H872.296V704.237ZM872.296 662.274H911.446V702.514H872.296V662.274ZM872.296 620.312H911.446V660.551H872.296V620.312ZM872.296 578.344H911.446V618.583H872.296V578.344ZM872.296 536.381H911.446V576.62H872.296V536.381ZM872.296 494.418H911.446V534.657H872.296V494.418ZM872.296 452.455H911.446V492.694H872.296V452.455ZM872.296 410.487H911.446V450.726H872.296V410.487ZM872.296 368.524H911.446V408.763H872.296V368.524ZM872.296 326.562H911.446V366.801H872.296V326.562ZM872.296 284.593H911.446V324.833H872.296V284.593ZM872.296 242.631H911.446V282.87H872.296V242.631ZM872.296 200.668H911.446V240.907H872.296V200.668ZM872.296 158.7H911.446V198.939H872.296V158.7ZM872.296 116.732H911.446V156.971H872.296V116.732ZM872.296 74.7689H911.446V115.008H872.296V74.7689ZM872.296 32.8008H911.446V73.0399H872.296V32.8008ZM872.296 -9.16198H911.446V31.0771H872.296V-9.16198ZM872.296 -51.1301H911.446V-10.891H872.296V-51.1301ZM872.296 -93.0982H911.446V-52.8591H872.296V-93.3421V-93.0982ZM831.318 830.147H870.467V870.386H831.318V830.147ZM831.318 788.184H870.467V828.423H831.318V788.184ZM831.318 746.216H870.467V786.455H831.318V746.216ZM831.318 704.253H870.467V744.492H831.318V704.253ZM831.318 662.29H870.467V702.53H831.318V662.29ZM831.318 620.328H870.467V660.567H831.318V620.328ZM831.318 578.36H870.467V618.599H831.318V578.36ZM831.318 536.397H870.467V576.636H831.318V536.397ZM831.318 494.434H870.467V534.673H831.318V494.434ZM831.318 452.471H870.467V492.71H831.318V452.471ZM831.318 410.503H870.467V450.742H831.318V410.503ZM831.318 368.54H870.467V408.779H831.318V368.54ZM831.318 326.577H870.467V366.817H831.318V326.577ZM831.318 284.609H870.467V324.848H831.318V284.609ZM831.318 242.647H870.467V282.886H831.318V242.647ZM831.318 200.684H870.467V240.923H831.318V200.684ZM831.318 158.716H870.467V198.955H831.318V158.716ZM831.318 116.748H870.467V156.987H831.318V116.748ZM831.318 74.7848H870.467V115.024H831.318V74.7848ZM831.318 32.8167H870.467V73.0558H831.318V32.8167ZM831.318 -9.14607H870.467V31.093H831.318V-9.14607ZM831.318 -51.1142H870.467V-10.8751H831.318V-51.1142ZM831.318 -93.0823H870.467V-52.8432H831.318V-93.3421V-93.0823ZM790.339 830.163H829.489V870.402H790.339V830.163ZM790.339 788.2H829.489V828.439H790.339V788.2ZM790.339 746.232H829.489V786.471H790.339V746.232ZM790.339 704.269H829.489V744.508H790.339V704.269ZM790.339 662.306H829.489V702.545H790.339V662.306ZM790.339 620.343H829.489V660.583H790.339V620.343ZM790.339 578.375H829.489V618.614H790.339V578.375ZM790.339 536.413H829.489V576.652H790.339V536.413ZM790.339 494.45H829.489V534.689H790.339V494.45ZM790.339 452.487H829.489V492.726H790.339V452.487ZM790.339 410.519H829.489V450.758H790.339V410.519ZM790.339 368.556H829.489V408.795H790.339V368.556ZM790.339 326.593H829.489V366.832H790.339V326.593ZM790.339 284.625H829.489V324.864H790.339V284.625ZM790.339 242.662H829.489V282.902H790.339V242.662ZM790.339 200.7H829.489V240.939H790.339V200.7ZM790.339 158.732H829.489V198.971H790.339V158.732ZM790.339 116.764H829.489V157.003H790.339V116.764ZM790.339 74.8007H829.489V115.04H790.339V74.8007ZM790.339 32.8326H829.489V73.0717H790.339V32.8326ZM790.339 -9.13015H829.489V31.1089H790.339V-9.13015ZM790.339 -51.0982H829.489V-10.8592H790.339V-51.0982ZM790.339 -93.0663H829.489V-52.8273H790.339V-93.3421V-93.0663ZM749.36 830.179H788.51V870.418H749.36V830.179ZM749.36 788.216H788.51V828.455H749.36V788.216ZM749.36 746.248H788.51V786.487H749.36V746.248ZM749.36 704.285H788.51V744.524H749.36V704.285ZM749.36 662.322H788.51V702.561H749.36V662.322ZM749.36 620.359H788.51V660.599H749.36V620.359ZM749.36 578.391H788.51V618.63H749.36V578.391ZM749.36 536.429H788.51V576.668H749.36V536.429ZM749.36 494.466H788.51V534.705H749.36V494.466ZM749.36 452.503H788.51V492.742H749.36V452.503ZM749.36 410.535H788.51V450.774H749.36V410.535ZM749.36 368.572H788.51V408.811H749.36V368.572ZM749.36 326.609H788.51V366.848H749.36V326.609ZM749.36 284.641H788.51V324.88H749.36V284.641ZM749.36 242.678H788.51V282.917H749.36V242.678ZM749.36 200.716H788.51V240.955H749.36V200.716ZM749.36 158.748H788.51V198.987H749.36V158.748ZM749.36 116.779H788.51V157.019H749.36V116.779ZM749.36 74.8166H788.51V115.056H749.36V74.8166ZM749.36 32.8486H788.51V73.0876H749.36V32.8486ZM749.36 -9.11424H788.51V31.1249H749.36V-9.11424ZM749.36 -51.0823H788.51V-10.8432H749.36V-51.0823ZM749.36 -93.0504H788.51V-52.8113H749.36V-93.3421V-93.0504ZM708.381 830.195H747.531V870.434H708.381V830.195ZM708.381 788.232H747.531V828.471H708.381V788.232ZM708.381 746.264H747.531V786.503H708.381V746.264ZM708.381 704.301H747.531V744.54H708.381V704.301ZM708.381 662.338H747.531V702.577H708.381V662.338ZM708.381 620.375H747.531V660.614H708.381V620.375ZM708.381 578.407H747.531V618.646H708.381V578.407ZM708.381 536.444H747.531V576.684H708.381V536.444ZM708.381 494.482H747.531V534.721H708.381V494.482ZM708.381 452.519H747.531V492.758H708.381V452.519ZM708.381 410.551H747.531V450.79H708.381V410.551ZM708.381 368.588H747.531V408.827H708.381V368.588ZM708.381 326.625H747.531V366.864H708.381V326.625ZM708.381 284.657H747.531V324.896H708.381V284.657ZM708.381 242.694H747.531V282.933H708.381V242.694ZM708.381 200.732H747.531V240.971H708.381V200.732ZM708.381 158.763H747.531V199.003H708.381V158.763ZM708.381 116.795H747.531V157.034H708.381V116.795ZM708.381 74.8326H747.531V115.072H708.381V74.8326ZM708.381 32.8645H747.531V73.1035H708.381V32.8645ZM708.381 -9.09833H747.531V31.1408H708.381V-9.09833ZM708.381 -51.0664H747.531V-10.8273H708.381V-51.0664ZM708.381 -93.0345H747.531V-52.7954H708.381V-93.3421V-93.0345ZM667.403 830.211H706.552V870.45H667.403V830.211ZM667.403 788.248H706.552V828.487H667.403V788.248ZM667.403 746.28H706.552V786.519H667.403V746.28ZM667.403 704.317H706.552V744.556H667.403V704.317ZM667.403 662.354H706.552V702.593H667.403V662.354ZM667.403 620.391H706.552V660.63H667.403V620.391ZM667.403 578.423H706.552V618.662H667.403V578.423ZM667.403 536.46H706.552V576.699H667.403V536.46ZM667.403 494.498H706.552V534.737H667.403V494.498ZM667.403 452.535H706.552V492.774H667.403V452.535ZM667.403 410.567H706.552V450.806H667.403V410.567ZM667.403 368.604H706.552V408.843H667.403V368.604ZM667.403 326.641H706.552V366.88H667.403V326.641ZM667.403 284.673H706.552V324.912H667.403V284.673ZM667.403 242.71H706.552V282.949H667.403V242.71ZM667.403 200.747H706.552V240.987H667.403V200.747ZM667.403 158.779H706.552V199.018H667.403V158.779ZM667.403 116.811H706.552V157.05H667.403V116.811ZM667.403 74.8485H706.552V115.088H667.403V74.8485ZM667.403 32.8804H706.552V73.1195H667.403V32.8804ZM667.403 -9.08242H706.552V31.1567H667.403V-9.08242ZM667.403 -51.0505H706.552V-10.8114H667.403V-51.0505ZM667.403 -93.0186H706.552V-52.7795H667.403V-93.3421V-93.0186ZM626.424 830.226H665.574V870.465H626.424V830.226ZM626.424 788.264H665.574V828.503H626.424V788.264ZM626.424 746.295H665.574V786.535H626.424V746.295ZM626.424 704.333H665.574V744.572H626.424V704.333ZM626.424 662.37H665.574V702.609H626.424V662.37ZM626.424 620.407H665.574V660.646H626.424V620.407ZM626.424 578.439H665.574V618.678H626.424V578.439ZM626.424 536.476H665.574V576.715H626.424V536.476ZM626.424 494.513H665.574V534.753H626.424V494.513ZM626.424 452.551H665.574V492.79H626.424V452.551ZM626.424 410.583H665.574V450.822H626.424V410.583ZM626.424 368.62H665.574V408.859H626.424V368.62ZM626.424 326.657H665.574V366.896H626.424V326.657ZM626.424 284.689H665.574V324.928H626.424V284.689ZM626.424 242.726H665.574V282.965H626.424V242.726ZM626.424 200.763H665.574V241.002H626.424V200.763ZM626.424 158.795H665.574V199.034H626.424V158.795ZM626.424 116.827H665.574V157.066H626.424V116.827ZM626.424 74.8644H665.574V115.103H626.424V74.8644ZM626.424 32.8963H665.574V73.1354H626.424V32.8963ZM626.424 -9.06651H665.574V31.1726H626.424V-9.06651ZM626.424 -51.0346H665.574V-10.7955H626.424V-51.0346ZM626.424 -93.0027H665.574V-52.7636H626.424V-93.3421V-93.0027ZM585.445 830.242H624.595V870.481H585.445V830.242ZM585.445 788.28H624.595V828.519H585.445V788.28ZM585.445 746.311H624.595V786.551H585.445V746.311ZM585.445 704.349H624.595V744.588H585.445V704.349ZM585.445 662.386H624.595V702.625H585.445V662.386ZM585.445 620.423H624.595V660.662H585.445V620.423ZM585.445 578.455H624.595V618.694H585.445V578.455ZM585.445 536.492H624.595V576.731H585.445V536.492ZM585.445 494.529H624.595V534.768H585.445V494.529ZM585.445 452.567H624.595V492.806H585.445V452.567ZM585.445 410.599H624.595V450.838H585.445V410.599ZM585.445 368.636H624.595V408.875H585.445V368.636ZM585.445 326.673H624.595V366.912H585.445V326.673ZM585.445 284.705H624.595V324.944H585.445V284.705ZM585.445 242.742H624.595V282.981H585.445V242.742ZM585.445 200.779H624.595V241.018H585.445V200.779ZM585.445 158.811H624.595V199.05H585.445V158.811ZM585.445 116.843H624.595V157.082H585.445V116.843ZM585.445 74.8803H624.595V115.119H585.445V74.8803ZM585.445 32.9122H624.595V73.1513H585.445V32.9122ZM585.445 -9.05059H624.595V31.1885H585.445V-9.05059ZM585.445 -51.0187H624.595V-10.7796H585.445V-51.0187ZM585.445 -92.9868H624.595V-52.7477H585.445V-93.3421V-92.9868ZM544.466 830.258H583.616V870.497H544.466V830.258ZM544.466 788.295H583.616V828.535H544.466V788.295ZM544.466 746.327H583.616V786.566H544.466V746.327ZM544.466 704.365H583.616V744.604H544.466V704.365ZM544.466 662.402H583.616V702.641H544.466V662.402ZM544.466 620.439H583.616V660.678H544.466V620.439ZM544.466 578.471H583.616V618.71H544.466V578.471ZM544.466 536.508H583.616V576.747H544.466V536.508ZM544.466 494.545H583.616V534.784H544.466V494.545ZM544.466 452.583H583.616V492.822H544.466V452.583ZM544.466 410.614H583.616V450.854H544.466V410.614ZM544.466 368.652H583.616V408.891H544.466V368.652ZM544.466 326.689H583.616V366.928H544.466V326.689ZM544.466 284.721H583.616V324.96H544.466V284.721ZM544.466 242.758H583.616V282.997H544.466V242.758ZM544.466 200.795H583.616V241.034H544.466V200.795ZM544.466 158.827H583.616V199.066H544.466V158.827ZM544.466 116.859H583.616V157.098H544.466V116.859ZM544.466 74.8962H583.616V115.135H544.466V74.8962ZM544.466 32.9281H583.616V73.1672H544.466V32.9281ZM544.466 -9.03468H583.616V31.2044H544.466V-9.03468ZM544.466 -51.0028H583.616V-10.7637H544.466V-51.0028ZM544.466 -92.9709H583.616V-52.7318H544.466V-93.3421V-92.9709ZM503.488 830.274H542.637V870.513H503.488V830.274ZM503.488 788.311H542.637V828.55H503.488V788.311ZM503.488 746.343H542.637V786.582H503.488V746.343ZM503.488 704.38H542.637V744.62H503.488V704.38ZM503.488 662.418H542.637V702.657H503.488V662.418ZM503.488 620.455H542.637V660.694H503.488V620.455ZM503.488 578.487H542.637V618.726H503.488V578.487ZM503.488 536.524H542.637V576.763H503.488V536.524ZM503.488 494.561H542.637V534.8H503.488V494.561ZM503.488 452.598H542.637V492.838H503.488V452.598ZM503.488 410.63H542.637V450.869H503.488V410.63ZM503.488 368.668H542.637V408.907H503.488V368.668ZM503.488 326.705H542.637V366.944H503.488V326.705ZM503.488 284.737H542.637V324.976H503.488V284.737ZM503.488 242.774H542.637V283.013H503.488V242.774ZM503.488 200.811H542.637V241.05H503.488V200.811ZM503.488 158.843H542.637V199.082H503.488V158.843ZM503.488 116.875H542.637V157.114H503.488V116.875ZM503.488 74.9121H542.637V115.151H503.488V74.9121ZM503.488 32.944H542.637V73.1831H503.488V32.944ZM503.488 -9.01877H542.637V31.2203H503.488V-9.01877ZM503.488 -50.9869H542.637V-10.7478H503.488V-50.9869ZM503.488 -92.955H542.637V-52.7159H503.488V-93.3421V-92.955ZM462.509 830.29H501.659V870.529H462.509V830.29ZM462.509 788.327H501.659V828.566H462.509V788.327ZM462.509 746.359H501.659V786.598H462.509V746.359ZM462.509 704.396H501.659V744.635H462.509V704.396ZM462.509 662.434H501.659V702.673H462.509V662.434ZM462.509 620.471H501.659V660.71H462.509V620.471ZM462.509 578.503H501.659V618.742H462.509V578.503ZM462.509 536.54H501.659V576.779H462.509V536.54ZM462.509 494.577H501.659V534.816H462.509V494.577ZM462.509 452.614H501.659V492.853H462.509V452.614ZM462.509 410.646H501.659V450.885H462.509V410.646ZM462.509 368.683H501.659V408.923H462.509V368.683ZM462.509 326.721H501.659V366.96H462.509V326.721ZM462.509 284.753H501.659V324.992H462.509V284.753ZM462.509 242.79H501.659V283.029H462.509V242.79ZM462.509 200.827H501.659V241.066H462.509V200.827ZM462.509 158.859H501.659V199.098H462.509V158.859ZM462.509 116.891H501.659V157.13H462.509V116.891ZM462.509 74.928H501.659V115.167H462.509V74.928ZM462.509 32.9599H501.659V73.199H462.509V32.9599ZM462.509 -9.00286H501.659V31.2362H462.509V-9.00286ZM462.509 -50.971H501.659V-10.7319H462.509V-50.971ZM462.509 -92.9391H501.659V-52.7H462.509V-93.3421V-92.9391ZM421.53 830.306H460.68V870.545H421.53V830.306ZM421.53 788.343H460.68V828.582H421.53V788.343ZM421.53 746.375H460.68V786.614H421.53V746.375ZM421.53 704.412H460.68V744.651H421.53V704.412ZM421.53 662.449H460.68V702.689H421.53V662.449ZM421.53 620.487H460.68V660.726H421.53V620.487ZM421.53 578.519H460.68V618.758H421.53V578.519ZM421.53 536.556H460.68V576.795H421.53V536.556ZM421.53 494.593H460.68V534.832H421.53V494.593ZM421.53 452.63H460.68V492.869H421.53V452.63ZM421.53 410.662H460.68V450.901H421.53V410.662ZM421.53 368.699H460.68V408.938H421.53V368.699ZM421.53 326.737H460.68V366.976H421.53V326.737ZM421.53 284.768H460.68V325.008H421.53V284.768ZM421.53 242.806H460.68V283.045H421.53V242.806ZM421.53 200.843H460.68V241.082H421.53V200.843ZM421.53 158.875H460.68V199.114H421.53V158.875ZM421.53 116.907H460.68V157.146H421.53V116.907ZM421.53 74.9439H460.68V115.183H421.53V74.9439ZM421.53 32.9758H460.68V73.2149H421.53V32.9758ZM421.53 -8.98695H460.68V31.2521H421.53V-8.98695ZM421.53 -50.955H460.68V-10.716H421.53V-50.955ZM421.53 -92.9231H460.68V-52.684H421.53V-93.3421V-92.9231ZM380.551 830.322H419.701V870.561H380.551V830.322ZM380.551 788.359H419.701V828.598H380.551V788.359ZM380.551 746.391H419.701V786.63H380.551V746.391ZM380.551 704.428H419.701V744.667H380.551V704.428ZM380.551 662.465H419.701V702.705H380.551V662.465ZM380.551 620.503H419.701V660.742H380.551V620.503ZM380.551 578.535H419.701V618.774H380.551V578.535ZM380.551 536.572H419.701V576.811H380.551V536.572ZM380.551 494.609H419.701V534.848H380.551V494.609ZM380.551 452.646H419.701V492.885H380.551V452.646ZM380.551 410.678H419.701V450.917H380.551V410.678ZM380.551 368.715H419.701V408.954H380.551V368.715ZM380.551 326.753H419.701V366.992H380.551V326.753ZM380.551 284.784H419.701V325.023H380.551V284.784ZM380.551 242.822H419.701V283.061H380.551V242.822ZM380.551 200.859H419.701V241.098H380.551V200.859ZM380.551 158.891H419.701V199.13H380.551V158.891ZM380.551 116.923H419.701V157.162H380.551V116.923ZM380.551 74.9598H419.701V115.199H380.551V74.9598ZM380.551 32.9917H419.701V73.2308H380.551V32.9917ZM380.551 -8.97104H419.701V31.268H380.551V-8.97104ZM380.551 -50.9391H419.701V-10.7H380.551V-50.9391ZM380.551 -92.9072H419.701V-52.6681H380.551V-93.3421V-92.9072ZM339.573 830.338H378.722V870.577H339.573V830.338ZM339.573 788.375H378.722V828.614H339.573V788.375ZM339.573 746.407H378.722V786.646H339.573V746.407ZM339.573 704.444H378.722V744.683H339.573V704.444ZM339.573 662.481H378.722V702.72H339.573V662.481ZM339.573 620.519H378.722V660.758H339.573V620.519ZM339.573 578.55H378.722V618.79H339.573V578.55ZM339.573 536.588H378.722V576.827H339.573V536.588ZM339.573 494.625H378.722V534.864H339.573V494.625ZM339.573 452.662H378.722V492.901H339.573V452.662ZM339.573 410.694H378.722V450.933H339.573V410.694ZM339.573 368.731H378.722V408.97H339.573V368.731ZM339.573 326.768H378.722V367.007H339.573V326.768ZM339.573 284.8H378.722V325.039H339.573V284.8ZM339.573 242.838H378.722V283.077H339.573V242.838ZM339.573 200.875H378.722V241.114H339.573V200.875ZM339.573 158.907H378.722V199.146H339.573V158.907ZM339.573 116.939H378.722V157.178H339.573V116.939ZM339.573 74.9758H378.722V115.215H339.573V74.9758ZM339.573 33.0077H378.722V73.2467H339.573V33.0077ZM339.573 -8.95513H378.722V31.284H339.573V-8.95513ZM339.573 -50.9232H378.722V-10.6841H339.573V-50.9232ZM339.573 -92.8913H378.722V-52.6522H339.573V-93.3421V-92.8913ZM298.594 830.354H337.744V870.593H298.594V830.354ZM298.594 788.391H337.744V828.63H298.594V788.391ZM298.594 746.423H337.744V786.662H298.594V746.423ZM298.594 704.46H337.744V744.699H298.594V704.46ZM298.594 662.497H337.744V702.736H298.594V662.497ZM298.594 620.534H337.744V660.774H298.594V620.534ZM298.594 578.566H337.744V618.805H298.594V578.566ZM298.594 536.604H337.744V576.843H298.594V536.604ZM298.594 494.641H337.744V534.88H298.594V494.641ZM298.594 452.678H337.744V492.917H298.594V452.678ZM298.594 410.71H337.744V450.949H298.594V410.71ZM298.594 368.747H337.744V408.986H298.594V368.747ZM298.594 326.784H337.744V367.023H298.594V326.784ZM298.594 284.816H337.744V325.055H298.594V284.816ZM298.594 242.853H337.744V283.093H298.594V242.853ZM298.594 200.891H337.744V241.13H298.594V200.891ZM298.594 158.923H337.744V199.162H298.594V158.923ZM298.594 116.954H337.744V157.194H298.594V116.954ZM298.594 74.9917H337.744V115.231H298.594V74.9917ZM298.594 33.0236H337.744V73.2627H298.594V33.0236ZM298.594 -8.93922H337.744V31.2999H298.594V-8.93922ZM298.594 -50.9073H337.744V-10.6682H298.594V-50.9073ZM298.594 -92.8754H337.744V-52.6363H298.594V-93.3421V-92.8754ZM257.615 830.37H296.765V870.609H257.615V830.37ZM257.615 788.407H296.765V828.646H257.615V788.407ZM257.615 746.439H296.765V786.678H257.615V746.439ZM257.615 704.476H296.765V744.715H257.615V704.476ZM257.615 662.513H296.765V702.752H257.615V662.513ZM257.615 620.55H296.765V660.789H257.615V620.55ZM257.615 578.582H296.765V618.821H257.615V578.582ZM257.615 536.619H296.765V576.859H257.615V536.619ZM257.615 494.657H296.765V534.896H257.615V494.657ZM257.615 452.694H296.765V492.933H257.615V452.694ZM257.615 410.726H296.765V450.965H257.615V410.726ZM257.615 368.763H296.765V409.002H257.615V368.763ZM257.615 326.8H296.765V367.039H257.615V326.8ZM257.615 284.832H296.765V325.071H257.615V284.832ZM257.615 242.869H296.765V283.108H257.615V242.869ZM257.615 200.907H296.765V241.146H257.615V200.907ZM257.615 158.938H296.765V199.178H257.615V158.938ZM257.615 116.97H296.765V157.209H257.615V116.97ZM257.615 75.0076H296.765V115.247H257.615V75.0076ZM257.615 33.0395H296.765V73.2786H257.615V33.0395ZM257.615 -8.92331H296.765V31.3158H257.615V-8.92331ZM257.615 -50.8914H296.765V-10.6523H257.615V-50.8914ZM257.615 -92.8595H296.765V-52.6204H257.615V-93.3421V-92.8595ZM216.637 830.386H255.786V870.625H216.637V830.386ZM216.637 788.423H255.786V828.662H216.637V788.423ZM216.637 746.455H255.786V786.694H216.637V746.455ZM216.637 704.492H255.786V744.731H216.637V704.492ZM216.637 662.529H255.786V702.768H216.637V662.529ZM216.637 620.566H255.786V660.805H216.637V620.566ZM216.637 578.598H255.786V618.837H216.637V578.598ZM216.637 536.635H255.786V576.874H216.637V536.635ZM216.637 494.673H255.786V534.912H216.637V494.673ZM216.637 452.71H255.786V492.949H216.637V452.71ZM216.637 410.742H255.786V450.981H216.637V410.742ZM216.637 368.779H255.786V409.018H216.637V368.779ZM216.637 326.816H255.786V367.055H216.637V326.816ZM216.637 284.848H255.786V325.087H216.637V284.848ZM216.637 242.885H255.786V283.124H216.637V242.885ZM216.637 200.922H255.786V241.162H216.637V200.922ZM216.637 158.954H255.786V199.193H216.637V158.954ZM216.637 116.986H255.786V157.225H216.637V116.986ZM216.637 75.0235H255.786V115.263H216.637V75.0235ZM216.637 33.0554H255.786V73.2945H216.637V33.0554ZM216.637 -8.9074H255.786V31.3317H216.637V-8.9074ZM216.637 -50.8755H255.786V-10.6364H216.637V-50.8755ZM216.637 -92.8436H255.786V-52.6045H216.637V-93.3421V-92.8436ZM175.658 830.401H214.808V870.641H175.658V830.401ZM175.658 788.439H214.808V828.678H175.658V788.439ZM175.658 746.471H214.808V786.71H175.658V746.471ZM175.658 704.508H214.808V744.747H175.658V704.508ZM175.658 662.545H214.808V702.784H175.658V662.545ZM175.658 620.582H214.808V660.821H175.658V620.582ZM175.658 578.614H214.808V618.853H175.658V578.614ZM175.658 536.651H214.808V576.89H175.658V536.651ZM175.658 494.689H214.808V534.928H175.658V494.689ZM175.658 452.726H214.808V492.965H175.658V452.726ZM175.658 410.758H214.808V450.997H175.658V410.758ZM175.658 368.795H214.808V409.034H175.658V368.795ZM175.658 326.832H214.808V367.071H175.658V326.832ZM175.658 284.864H214.808V325.103H175.658V284.864ZM175.658 242.901H214.808V283.14H175.658V242.901ZM175.658 200.938H214.808V241.177H175.658V200.938ZM175.658 158.97H214.808V199.209H175.658V158.97ZM175.658 117.002H214.808V157.241H175.658V117.002ZM175.658 75.0394H214.808V115.278H175.658V75.0394ZM175.658 33.0713H214.808V73.3104H175.658V33.0713ZM175.658 -8.89149H214.808V31.3476H175.658V-8.89149ZM175.658 -50.8596H214.808V-10.6205H175.658V-50.8596ZM175.658 -92.8277H214.808V-52.5886H175.658V-93.3421V-92.8277ZM134.679 830.417H173.829V870.656H134.679V830.417ZM134.679 788.455H173.829V828.694H134.679V788.455ZM134.679 746.486H173.829V786.726H134.679V746.486ZM134.679 704.524H173.829V744.763H134.679V704.524ZM134.679 662.561H173.829V702.8H134.679V662.561ZM134.679 620.598H173.829V660.837H134.679V620.598ZM134.679 578.63H173.829V618.869H134.679V578.63ZM134.679 536.667H173.829V576.906H134.679V536.667ZM134.679 494.704H173.829V534.943H134.679V494.704ZM134.679 452.742H173.829V492.981H134.679V452.742ZM134.679 410.774H173.829V451.013H134.679V410.774ZM134.679 368.811H173.829V409.05H134.679V368.811ZM134.679 326.848H173.829V367.087H134.679V326.848ZM134.679 284.88H173.829V325.119H134.679V284.88ZM134.679 242.917H173.829V283.156H134.679V242.917ZM134.679 200.954H173.829V241.193H134.679V200.954ZM134.679 158.986H173.829V199.225H134.679V158.986ZM134.679 117.018H173.829V157.257H134.679V117.018ZM134.679 75.0553H173.829V115.294H134.679V75.0553ZM134.679 33.0872H173.829V73.3263H134.679V33.0872ZM134.679 -8.87557H173.829V31.3635H134.679V-8.87557ZM134.679 -50.8437H173.829V-10.6046H134.679V-50.8437ZM134.679 -92.8118H173.829V-52.5727H134.679V-93.3421V-92.8118ZM93.7003 830.433H132.85V870.672H93.7003V830.433ZM93.7003 788.47H132.85V828.71H93.7003V788.47ZM93.7003 746.502H132.85V786.741H93.7003V746.502ZM93.7003 704.54H132.85V744.779H93.7003V704.54ZM93.7003 662.577H132.85V702.816H93.7003V662.577ZM93.7003 620.614H132.85V660.853H93.7003V620.614ZM93.7003 578.646H132.85V618.885H93.7003V578.646ZM93.7003 536.683H132.85V576.922H93.7003V536.683ZM93.7003 494.72H132.85V534.959H93.7003V494.72ZM93.7003 452.758H132.85V492.997H93.7003V452.758ZM93.7003 410.789H132.85V451.029H93.7003V410.789ZM93.7003 368.827H132.85V409.066H93.7003V368.827ZM93.7003 326.864H132.85V367.103H93.7003V326.864ZM93.7003 284.896H132.85V325.135H93.7003V284.896ZM93.7003 242.933H132.85V283.172H93.7003V242.933ZM93.7003 200.97H132.85V241.209H93.7003V200.97ZM93.7003 159.002H132.85V199.241H93.7003V159.002ZM93.7003 117.034H132.85V157.273H93.7003V117.034ZM93.7003 75.0712H132.85V115.31H93.7003V75.0712ZM93.7003 33.1031H132.85V73.3422H93.7003V33.1031ZM93.7003 -8.85966H132.85V31.3794H93.7003V-8.85966ZM93.7003 -50.8278H132.85V-10.5887H93.7003V-50.8278ZM93.7003 -92.7959H132.85V-52.5568H93.7003V-93.3421V-92.7959ZM52.7215 830.449H91.8713V870.688H52.7215V830.449ZM52.7215 788.486H91.8713V828.725H52.7215V788.486ZM52.7215 746.518H91.8713V786.757H52.7215V746.518ZM52.7215 704.555H91.8713V744.795H52.7215V704.555ZM52.7215 662.593H91.8713V702.832H52.7215V662.593ZM52.7215 620.63H91.8713V660.869H52.7215V620.63ZM52.7215 578.662H91.8713V618.901H52.7215V578.662ZM52.7215 536.699H91.8713V576.938H52.7215V536.699ZM52.7215 494.736H91.8713V534.975H52.7215V494.736ZM52.7215 452.773H91.8713V493.013H52.7215V452.773ZM52.7215 410.805H91.8713V451.044H52.7215V410.805ZM52.7215 368.843H91.8713V409.082H52.7215V368.843ZM52.7215 326.88H91.8713V367.119H52.7215V326.88ZM52.7215 284.912H91.8713V325.151H52.7215V284.912ZM52.7215 242.949H91.8713V283.188H52.7215V242.949ZM52.7215 200.986H91.8713V241.225H52.7215V200.986ZM52.7215 159.018H91.8713V199.257H52.7215V159.018ZM52.7215 117.05H91.8713V157.289H52.7215V117.05ZM52.7215 75.0871H91.8713V115.326H52.7215V75.0871ZM52.7215 33.119H91.8713V73.3581H52.7215V33.119ZM52.7215 -8.84375H91.8713V31.3953H52.7215V-8.84375ZM52.7215 -50.8118H91.8713V-10.5728H52.7215V-50.8118ZM52.7215 -92.7799H91.8713V-52.5409H52.7215V-93.3421V-92.7799ZM11.7428 830.465H50.8925V870.704H11.7428V830.465ZM11.7428 788.502H50.8925V828.741H11.7428V788.502ZM11.7428 746.534H50.8925V786.773H11.7428V746.534ZM11.7428 704.571H50.8925V744.81H11.7428V704.571ZM11.7428 662.609H50.8925V702.848H11.7428V662.609ZM11.7428 620.646H50.8925V660.885H11.7428V620.646ZM11.7428 578.678H50.8925V618.917H11.7428V578.678ZM11.7428 536.715H50.8925V576.954H11.7428V536.715ZM11.7428 494.752H50.8925V534.991H11.7428V494.752ZM11.7428 452.789H50.8925V493.028H11.7428V452.789ZM11.7428 410.821H50.8925V451.06H11.7428V410.821ZM11.7428 368.858H50.8925V409.098H11.7428V368.858ZM11.7428 326.896H50.8925V367.135H11.7428V326.896ZM11.7428 284.928H50.8925V325.167H11.7428V284.928ZM11.7428 242.965H50.8925V283.204H11.7428V242.965ZM11.7428 201.002H50.8925V241.241H11.7428V201.002ZM11.7428 159.034H50.8925V199.273H11.7428V159.034ZM11.7428 117.066H50.8925V157.305H11.7428V117.066ZM11.7428 75.103H50.8925V115.342H11.7428V75.103ZM11.7428 33.135H50.8925V73.374H11.7428V33.135ZM11.7428 -8.82784H50.8925V31.4113H11.7428V-8.82784ZM11.7428 -50.7959H50.8925V-10.5568H11.7428V-50.7959ZM11.7428 -92.764H50.8925V-52.5249H11.7428V-93.3421V-92.764ZM-29.2359 830.481H9.91379V870.72H-29.2359V830.481ZM-29.2359 788.518H9.91379V828.757H-29.2359V788.518ZM-29.2359 746.55H9.91379V786.789H-29.2359V746.55ZM-29.2359 704.587H9.91379V744.826H-29.2359V704.587ZM-29.2359 662.625H9.91379V702.864H-29.2359V662.625ZM-29.2359 620.662H9.91379V660.901H-29.2359V620.662ZM-29.2359 578.694H9.91379V618.933H-29.2359V578.694ZM-29.2359 536.731H9.91379V576.97H-29.2359V536.731ZM-29.2359 494.768H9.91379V535.007H-29.2359V494.768ZM-29.2359 452.805H9.91379V493.044H-29.2359V452.805ZM-29.2359 410.837H9.91379V451.076H-29.2359V410.837ZM-29.2359 368.874H9.91379V409.113H-29.2359V368.874ZM-29.2359 326.912H9.91379V367.151H-29.2359V326.912ZM-29.2359 284.944H9.91379V325.183H-29.2359V284.944ZM-29.2359 242.981H9.91379V283.22H-29.2359V242.981ZM-29.2359 201.018H9.91379V241.257H-29.2359V201.018ZM-29.2359 159.05H9.91379V199.289H-29.2359V159.05ZM-29.2359 117.082H9.91379V157.321H-29.2359V117.082ZM-29.2359 75.1189H9.91379V115.358H-29.2359V75.1189ZM-29.2359 33.1509H9.91379V73.39H-29.2359V33.1509ZM-29.2359 -8.81193H9.91379V31.4272H-29.2359V-8.81193ZM-29.2359 -50.78H9.91379V-10.5409H-29.2359V-50.78ZM-29.2359 -92.7481H9.91379V-52.509H-29.2359V-93.3421V-92.7481ZM-70.2147 830.497H-31.065V870.736H-70.2147V830.497ZM-70.2147 788.534H-31.065V828.773H-70.2147V788.534ZM-70.2147 746.566H-31.065V786.805H-70.2147V746.566ZM-70.2147 704.603H-31.065V744.842H-70.2147V704.603ZM-70.2147 662.64H-31.065V702.879H-70.2147V662.64ZM-70.2147 620.678H-31.065V660.917H-70.2147V620.678ZM-70.2147 578.71H-31.065V618.949H-70.2147V578.71ZM-70.2147 536.747H-31.065V576.986H-70.2147V536.747ZM-70.2147 494.784H-31.065V535.023H-70.2147V494.784ZM-70.2147 452.821H-31.065V493.06H-70.2147V452.821ZM-70.2147 410.853H-31.065V451.092H-70.2147V410.853ZM-70.2147 368.89H-31.065V409.129H-70.2147V368.89ZM-70.2147 326.928H-31.065V367.167H-70.2147V326.928ZM-70.2147 284.959H-31.065V325.198H-70.2147V284.959ZM-70.2147 242.997H-31.065V283.236H-70.2147V242.997ZM-70.2147 201.034H-31.065V241.273H-70.2147V201.034ZM-70.2147 159.066H-31.065V199.305H-70.2147V159.066ZM-70.2147 117.098H-31.065V157.337H-70.2147V117.098ZM-70.2147 75.1349H-31.065V115.374H-70.2147V75.1349ZM-70.2147 33.1668H-31.065V73.4059H-70.2147V33.1668ZM-70.2147 -8.79602H-31.065V31.4431H-70.2147V-8.79602ZM-70.2147 -50.7641H-31.065V-10.525H-70.2147V-50.7641ZM-70.2147 -92.7322H-31.065V-52.4931H-70.2147V-93.3421V-92.7322ZM-111.171 829.908H-72.0213V870.147H-111.171V829.908ZM-111.171 787.945H-72.0213V828.184H-111.171V787.945ZM-111.171 745.977H-72.0213V786.216H-111.171V745.977ZM-111.171 704.014H-72.0213V744.254H-111.171V704.014ZM-111.171 662.052H-72.0213V702.291H-111.171V662.052ZM-111.171 620.089H-72.0213V660.328H-111.171V620.089ZM-111.171 578.121H-72.0213V618.36H-111.171V578.121ZM-111.171 536.158H-72.0213V576.397H-111.171V536.158ZM-111.171 494.195H-72.0213V534.434H-111.171V494.195ZM-111.171 452.232H-72.0213V492.472H-111.171V452.232ZM-111.171 410.264H-72.0213V450.503H-111.171V410.264ZM-111.171 368.302H-72.0213V408.541H-111.171V368.302ZM-111.171 326.339H-72.0213V366.578H-111.171V326.339ZM-111.171 284.371H-72.0213V324.61H-111.171V284.371ZM-111.171 242.408H-72.0213V282.647H-111.171V242.408ZM-111.171 200.445H-72.0213V240.684H-111.171V200.445ZM-111.171 158.477H-72.0213V198.716H-111.171V158.477ZM-111.171 116.509H-72.0213V156.748H-111.171V116.509ZM-111.171 74.5462H-72.0213V114.785H-111.171V74.5462ZM-111.171 32.5781H-72.0213V72.8171H-111.171V32.5781ZM-111.171 -9.38473H-72.0213V30.8544H-111.171V-9.38473ZM-111.171 -51.3528H-72.0213V-11.1137H-111.171V-51.3528ZM-111.171 -93.3209H-72.0213V-53.0818H-111.171V-93.3421V-93.3209Z" fill="url(#paint0_radial_515_312)" fill-opacity="0.66" style="mix-blend-mode:screen"/>
</g>
<defs>
<radialGradient id="paint0_radial_515_312" cx="0" cy="0" r="1" gradientUnits="userSpaceOnUse" gradientTransform="translate(742.934 247.863) rotate(90.0968) scale(281.265 569.625)">
<stop stop-color="#111136"/>
<stop offset="1" stop-color="#050511" stop-opacity="0"/>
</radialGradient>
</defs>
</svg>
