<svg width="1200" height="619" viewBox="0 0 1200 619" fill="none" xmlns="http://www.w3.org/2000/svg">
<g opacity="0.19">
<path d="M-113 -115V885H-111.171V870.871H-72.0213V885H-70.1922V870.871H-31.0425V885H-29.2135V870.871H9.93623V885H11.7652V870.871H50.915V885H52.744V870.871H91.8937V885H93.7227V870.871H132.872V885H134.701V870.871H173.851V885H175.68V870.871H214.83V885H216.659V870.871H255.809V885H257.638V870.871H296.787V885H298.616V870.871H337.766V885H339.595V870.871H378.745V885H380.574V870.871H419.724V885H421.553V870.871H460.702V885H462.531V870.871H501.681V885H503.51V870.871H542.66V885H544.489V870.871H583.639V885H585.468V870.871H624.617V885H626.446V870.871H665.596V885H667.425V870.871H706.575V885H708.404V870.871H747.554V885H749.383V870.871H788.532V885H790.361V870.871H829.511V885H831.34V870.871H870.49V885H872.319V870.871H911.469V885H913.298V870.871H952.447V885H954.276V870.871H993.426V885H995.255V870.871H1034.4V885H1036.23V870.871H1075.38V885H1077.21V870.871H1116.36V885H1118.19V870.871H1157.34V885H1159.17V870.871H1198.32V885H1200.15V870.871H1239.3V885H1241.13V870.871H1280.28V885H1282.11V870.871H1321.26V885H1323.08V870.871H1362.23V885H1364.06V870.871H1403.21V885H1405.04V870.871H1444.19V885H1446.02V870.871H1485.17V885H1487V-115H1485.17V-96.0658H1446.02V-115H1444.19V-96.0658H1405.04V-115H1403.21V-96.0658H1364.06V-115H1362.23V-96.0658H1323.08V-115H1321.26V-96.0658H1282.11V-115H1280.28V-96.0658H1241.13V-115H1239.3V-96.0658H1200.15V-115H1198.32V-96.0658H1159.17V-115H1157.34V-96.0658H1118.19V-115H1116.36V-96.0658H1077.21V-115H1075.38V-96.0658H1036.23V-115H1034.4V-96.0658H995.255V-115H993.426V-96.0658H954.276V-115H952.447V-96.0658H913.298V-115H911.469V-96.0658H872.319V-115H870.49V-96.0658H831.34V-115H829.511V-96.0658H790.361V-115H788.532V-96.0658H749.383V-115H747.554V-96.0658H708.404V-115H706.575V-96.0658H667.425V-115H665.596V-96.0658H626.446V-115H624.617V-96.0658H585.468V-115H583.639V-96.0658H544.489V-115H542.66V-96.0658H503.51V-115H501.681V-96.0658H462.531V-115H460.702V-96.0658H421.553V-115H419.724V-96.0658H380.574V-115H378.745V-96.0658H339.595V-115H337.766V-96.0658H298.616V-115H296.787V-96.0658H257.638V-115H255.809V-96.0658H216.659V-115H214.83V-96.0658H175.68V-115H173.851V-96.0658H134.701V-115H132.872V-96.0658H93.7227V-115H91.8937V-96.0658H52.744V-115H50.915V-96.0658H11.7652V-115H9.93623V-96.0658H-29.2135V-115H-31.0425V-96.0658H-70.1922V-115H-72.0213V-96.0658H-111.171V-115H-113ZM1446 828.908H1485.15V869.147H1446V828.908ZM1446 786.945H1485.15V827.184H1446V786.945ZM1446 744.977H1485.15V785.216H1446V744.977ZM1446 703.014H1485.15V743.254H1446V703.014ZM1446 661.052H1485.15V701.291H1446V661.052ZM1446 619.089H1485.15V659.328H1446V619.089ZM1446 577.121H1485.15V617.36H1446V577.121ZM1446 535.158H1485.15V575.397H1446V535.158ZM1446 493.195H1485.15V533.434H1446V493.195ZM1446 451.232H1485.15V491.472H1446V451.232ZM1446 409.264H1485.15V449.503H1446V409.264ZM1446 367.302H1485.15V407.541H1446V367.302ZM1446 325.339H1485.15V365.578H1446V325.339ZM1446 283.371H1485.15V323.61H1446V283.371ZM1446 241.408H1485.15V281.647H1446V241.408ZM1446 199.445H1485.15V239.684H1446V199.445ZM1446 157.477H1485.15V197.716H1446V157.477ZM1446 115.509H1485.15V155.748H1446V115.509ZM1446 73.5462H1485.15V113.785H1446V73.5462ZM1446 31.5781H1485.15V71.8171H1446V31.5781ZM1446 -10.3847H1485.15V29.8544H1446V-10.3847ZM1446 -52.3528H1485.15V-12.1137H1446V-52.3528ZM1446 -94.3209H1485.15V-54.0818H1446V-94.3421V-94.3209ZM1405.02 828.924H1444.17V869.163H1405.02V828.924ZM1405.02 786.961H1444.17V827.2H1405.02V786.961ZM1405.02 744.993H1444.17V785.232H1405.02V744.993ZM1405.02 703.03H1444.17V743.27H1405.02V703.03ZM1405.02 661.068H1444.17V701.307H1405.02V661.068ZM1405.02 619.105H1444.17V659.344H1405.02V619.105ZM1405.02 577.137H1444.17V617.376H1405.02V577.137ZM1405.02 535.174H1444.17V575.413H1405.02V535.174ZM1405.02 493.211H1444.17V533.45H1405.02V493.211ZM1405.02 451.248H1444.17V491.487H1405.02V451.248ZM1405.02 409.28H1444.17V449.519H1405.02V409.28ZM1405.02 367.318H1444.17V407.557H1405.02V367.318ZM1405.02 325.355H1444.17V365.594H1405.02V325.355ZM1405.02 283.387H1444.17V323.626H1405.02V283.387ZM1405.02 241.424H1444.17V281.663H1405.02V241.424ZM1405.02 199.461H1444.17V239.7H1405.02V199.461ZM1405.02 157.493H1444.17V197.732H1405.02V157.493ZM1405.02 115.525H1444.17V155.764H1405.02V115.525ZM1405.02 73.5621H1444.17V113.801H1405.02V73.5621ZM1405.02 31.594H1444.17V71.8331H1405.02V31.594ZM1405.02 -10.3688H1444.17V29.8703H1405.02V-10.3688ZM1405.02 -52.3369H1444.17V-12.0978H1405.02V-52.3369ZM1405.02 -94.305H1444.17V-54.0659H1405.02V-94.3421V-94.305ZM1364.04 828.94H1403.19V869.179H1364.04V828.94ZM1364.04 786.977H1403.19V827.216H1364.04V786.977ZM1364.04 745.009H1403.19V785.248H1364.04V745.009ZM1364.04 703.046H1403.19V743.285H1364.04V703.046ZM1364.04 661.084H1403.19V701.323H1364.04V661.084ZM1364.04 619.121H1403.19V659.36H1364.04V619.121ZM1364.04 577.153H1403.19V617.392H1364.04V577.153ZM1364.04 535.19H1403.19V575.429H1364.04V535.19ZM1364.04 493.227H1403.19V533.466H1364.04V493.227ZM1364.04 451.264H1403.19V491.503H1364.04V451.264ZM1364.04 409.296H1403.19V449.535H1364.04V409.296ZM1364.04 367.333H1403.19V407.572H1364.04V367.333ZM1364.04 325.371H1403.19V365.61H1364.04V325.371ZM1364.04 283.403H1403.19V323.642H1364.04V283.403ZM1364.04 241.44H1403.19V281.679H1364.04V241.44ZM1364.04 199.477H1403.19V239.716H1364.04V199.477ZM1364.04 157.509H1403.19V197.748H1364.04V157.509ZM1364.04 115.541H1403.19V155.78H1364.04V115.541ZM1364.04 73.578H1403.19V113.817H1364.04V73.578ZM1364.04 31.6099H1403.19V71.849H1364.04V31.6099ZM1364.04 -10.3529H1403.19V29.8862H1364.04V-10.3529ZM1364.04 -52.321H1403.19V-12.0819H1364.04V-52.321ZM1364.04 -94.2891H1403.19V-54.05H1364.04V-94.3421V-94.2891ZM1323.06 828.956H1362.21V869.195H1323.06V828.956ZM1323.06 786.993H1362.21V827.232H1323.06V786.993ZM1323.06 745.025H1362.21V785.264H1323.06V745.025ZM1323.06 703.062H1362.21V743.301H1323.06V703.062ZM1323.06 661.099H1362.21V701.339H1323.06V661.099ZM1323.06 619.137H1362.21V659.376H1323.06V619.137ZM1323.06 577.169H1362.21V617.408H1323.06V577.169ZM1323.06 535.206H1362.21V575.445H1323.06V535.206ZM1323.06 493.243H1362.21V533.482H1323.06V493.243ZM1323.06 451.28H1362.21V491.519H1323.06V451.28ZM1323.06 409.312H1362.21V449.551H1323.06V409.312ZM1323.06 367.349H1362.21V407.588H1323.06V367.349ZM1323.06 325.387H1362.21V365.626H1323.06V325.387ZM1323.06 283.418H1362.21V323.658H1323.06V283.418ZM1323.06 241.456H1362.21V281.695H1323.06V241.456ZM1323.06 199.493H1362.21V239.732H1323.06V199.493ZM1323.06 157.525H1362.21V197.764H1323.06V157.525ZM1323.06 115.557H1362.21V155.796H1323.06V115.557ZM1323.06 73.5939H1362.21V113.833H1323.06V73.5939ZM1323.06 31.6258H1362.21V71.8649H1323.06V31.6258ZM1323.06 -10.337H1362.21V29.9021H1323.06V-10.337ZM1323.06 -52.3051H1362.21V-12.066H1323.06V-52.3051ZM1323.06 -94.2732H1362.21V-54.0341H1323.06V-94.3421V-94.2732ZM1282.08 828.972H1321.23V869.211H1282.08V828.972ZM1282.08 787.009H1321.23V827.248H1282.08V787.009ZM1282.08 745.041H1321.23V785.28H1282.08V745.041ZM1282.08 703.078H1321.23V743.317H1282.08V703.078ZM1282.08 661.115H1321.23V701.354H1282.08V661.115ZM1282.08 619.153H1321.23V659.392H1282.08V619.153ZM1282.08 577.184H1321.23V617.424H1282.08V577.184ZM1282.08 535.222H1321.23V575.461H1282.08V535.222ZM1282.08 493.259H1321.23V533.498H1282.08V493.259ZM1282.08 451.296H1321.23V491.535H1282.08V451.296ZM1282.08 409.328H1321.23V449.567H1282.08V409.328ZM1282.08 367.365H1321.23V407.604H1282.08V367.365ZM1282.08 325.402H1321.23V365.642H1282.08V325.402ZM1282.08 283.434H1321.23V323.673H1282.08V283.434ZM1282.08 241.472H1321.23V281.711H1282.08V241.472ZM1282.08 199.509H1321.23V239.748H1282.08V199.509ZM1282.08 157.541H1321.23V197.78H1282.08V157.541ZM1282.08 115.573H1321.23V155.812H1282.08V115.573ZM1282.08 73.6098H1321.23V113.849H1282.08V73.6098ZM1282.08 31.6417H1321.23V71.8808H1282.08V31.6417ZM1282.08 -10.3211H1321.23V29.918H1282.08V-10.3211ZM1282.08 -52.2892H1321.23V-12.0501H1282.08V-52.2892ZM1282.08 -94.2573H1321.23V-54.0182H1282.08V-94.3421V-94.2573ZM1241.11 828.988H1280.25V869.227H1241.11V828.988ZM1241.11 787.025H1280.25V827.264H1241.11V787.025ZM1241.11 745.057H1280.25V785.296H1241.11V745.057ZM1241.11 703.094H1280.25V743.333H1241.11V703.094ZM1241.11 661.131H1280.25V701.37H1241.11V661.131ZM1241.11 619.168H1280.25V659.408H1241.11V619.168ZM1241.11 577.2H1280.25V617.439H1241.11V577.2ZM1241.11 535.238H1280.25V575.477H1241.11V535.238ZM1241.11 493.275H1280.25V533.514H1241.11V493.275ZM1241.11 451.312H1280.25V491.551H1241.11V451.312ZM1241.11 409.344H1280.25V449.583H1241.11V409.344ZM1241.11 367.381H1280.25V407.62H1241.11V367.381ZM1241.11 325.418H1280.25V365.657H1241.11V325.418ZM1241.11 283.45H1280.25V323.689H1241.11V283.45ZM1241.11 241.487H1280.25V281.727H1241.11V241.487ZM1241.11 199.525H1280.25V239.764H1241.11V199.525ZM1241.11 157.557H1280.25V197.796H1241.11V157.557ZM1241.11 115.588H1280.25V155.828H1241.11V115.588ZM1241.11 73.6257H1280.25V113.865H1241.11V73.6257ZM1241.11 31.6576H1280.25V71.8967H1241.11V31.6576ZM1241.11 -10.3052H1280.25V29.9339H1241.11V-10.3052ZM1241.11 -52.2733H1280.25V-12.0342H1241.11V-52.2733ZM1241.11 -94.2414H1280.25V-54.0023H1241.11V-94.3421V-94.2414ZM1200.13 829.004H1239.28V869.243H1200.13V829.004ZM1200.13 787.041H1239.28V827.28H1200.13V787.041ZM1200.13 745.073H1239.28V785.312H1200.13V745.073ZM1200.13 703.11H1239.28V743.349H1200.13V703.11ZM1200.13 661.147H1239.28V701.386H1200.13V661.147ZM1200.13 619.184H1239.28V659.424H1200.13V619.184ZM1200.13 577.216H1239.28V617.455H1200.13V577.216ZM1200.13 535.254H1239.28V575.493H1200.13V535.254ZM1200.13 493.291H1239.28V533.53H1200.13V493.291ZM1200.13 451.328H1239.28V491.567H1200.13V451.328ZM1200.13 409.36H1239.28V449.599H1200.13V409.36ZM1200.13 367.397H1239.28V407.636H1200.13V367.397ZM1200.13 325.434H1239.28V365.673H1200.13V325.434ZM1200.13 283.466H1239.28V323.705H1200.13V283.466ZM1200.13 241.503H1239.28V281.742H1200.13V241.503ZM1200.13 199.541H1239.28V239.78H1200.13V199.541ZM1200.13 157.572H1239.28V197.812H1200.13V157.572ZM1200.13 115.604H1239.28V155.844H1200.13V115.604ZM1200.13 73.6416H1239.28V113.881H1200.13V73.6416ZM1200.13 31.6735H1239.28V71.9126H1200.13V31.6735ZM1200.13 -10.2893H1239.28V29.9498H1200.13V-10.2893ZM1200.13 -52.2574H1239.28V-12.0183H1200.13V-52.2574ZM1200.13 -94.2255H1239.28V-53.9864H1200.13V-94.3421V-94.2255ZM1159.15 829.02H1198.3V869.259H1159.15V829.02ZM1159.15 787.057H1198.3V827.296H1159.15V787.057ZM1159.15 745.089H1198.3V785.328H1159.15V745.089ZM1159.15 703.126H1198.3V743.365H1159.15V703.126ZM1159.15 661.163H1198.3V701.402H1159.15V661.163ZM1159.15 619.2H1198.3V659.439H1159.15V619.2ZM1159.15 577.232H1198.3V617.471H1159.15V577.232ZM1159.15 535.269H1198.3V575.508H1159.15V535.269ZM1159.15 493.307H1198.3V533.546H1159.15V493.307ZM1159.15 451.344H1198.3V491.583H1159.15V451.344ZM1159.15 409.376H1198.3V449.615H1159.15V409.376ZM1159.15 367.413H1198.3V407.652H1159.15V367.413ZM1159.15 325.45H1198.3V365.689H1159.15V325.45ZM1159.15 283.482H1198.3V323.721H1159.15V283.482ZM1159.15 241.519H1198.3V281.758H1159.15V241.519ZM1159.15 199.557H1198.3V239.796H1159.15V199.557ZM1159.15 157.588H1198.3V197.828H1159.15V157.588ZM1159.15 115.62H1198.3V155.859H1159.15V115.62ZM1159.15 73.6575H1198.3V113.897H1159.15V73.6575ZM1159.15 31.6894H1198.3V71.9285H1159.15V31.6894ZM1159.15 -10.2733H1198.3V29.9657H1159.15V-10.2733ZM1159.15 -52.2414H1198.3V-12.0024H1159.15V-52.2414ZM1159.15 -94.2095H1198.3V-53.9704H1159.15V-94.3421V-94.2095ZM1118.17 829.035H1157.32V869.275H1118.17V829.035ZM1118.17 787.073H1157.32V827.312H1118.17V787.073ZM1118.17 745.105H1157.32V785.344H1118.17V745.105ZM1118.17 703.142H1157.32V743.381H1118.17V703.142ZM1118.17 661.179H1157.32V701.418H1118.17V661.179ZM1118.17 619.216H1157.32V659.455H1118.17V619.216ZM1118.17 577.248H1157.32V617.487H1118.17V577.248ZM1118.17 535.285H1157.32V575.524H1118.17V535.285ZM1118.17 493.323H1157.32V533.562H1118.17V493.323ZM1118.17 451.36H1157.32V491.599H1118.17V451.36ZM1118.17 409.392H1157.32V449.631H1118.17V409.392ZM1118.17 367.429H1157.32V407.668H1118.17V367.429ZM1118.17 325.466H1157.32V365.705H1118.17V325.466ZM1118.17 283.498H1157.32V323.737H1118.17V283.498ZM1118.17 241.535H1157.32V281.774H1118.17V241.535ZM1118.17 199.572H1157.32V239.812H1118.17V199.572ZM1118.17 157.604H1157.32V197.843H1118.17V157.604ZM1118.17 115.636H1157.32V155.875H1118.17V115.636ZM1118.17 73.6734H1157.32V113.913H1118.17V73.6734ZM1118.17 31.7053H1157.32V71.9444H1118.17V31.7053ZM1118.17 -10.2574H1157.32V29.9816H1118.17V-10.2574ZM1118.17 -52.2255H1157.32V-11.9864H1118.17V-52.2255ZM1118.17 -94.1936H1157.32V-53.9545H1118.17V-94.3421V-94.1936ZM1077.19 829.051H1116.34V869.29H1077.19V829.051ZM1077.19 787.089H1116.34V827.328H1077.19V787.089ZM1077.19 745.12H1116.34V785.36H1077.19V745.12ZM1077.19 703.158H1116.34V743.397H1077.19V703.158ZM1077.19 661.195H1116.34V701.434H1077.19V661.195ZM1077.19 619.232H1116.34V659.471H1077.19V619.232ZM1077.19 577.264H1116.34V617.503H1077.19V577.264ZM1077.19 535.301H1116.34V575.54H1077.19V535.301ZM1077.19 493.338H1116.34V533.578H1077.19V493.338ZM1077.19 451.376H1116.34V491.615H1077.19V451.376ZM1077.19 409.408H1116.34V449.647H1077.19V409.408ZM1077.19 367.445H1116.34V407.684H1077.19V367.445ZM1077.19 325.482H1116.34V365.721H1077.19V325.482ZM1077.19 283.514H1116.34V323.753H1077.19V283.514ZM1077.19 241.551H1116.34V281.79H1077.19V241.551ZM1077.19 199.588H1116.34V239.827H1077.19V199.588ZM1077.19 157.62H1116.34V197.859H1077.19V157.62ZM1077.19 115.652H1116.34V155.891H1077.19V115.652ZM1077.19 73.6893H1116.34V113.928H1077.19V73.6893ZM1077.19 31.7213H1116.34V71.9604H1077.19V31.7213ZM1077.19 -10.2415H1116.34V29.9976H1077.19V-10.2415ZM1077.19 -52.2096H1116.34V-11.9705H1077.19V-52.2096ZM1077.19 -94.1777H1116.34V-53.9386H1077.19V-94.3421V-94.1777ZM1036.21 829.067H1075.36V869.306H1036.21V829.067ZM1036.21 787.105H1075.36V827.344H1036.21V787.105ZM1036.21 745.136H1075.36V785.376H1036.21V745.136ZM1036.21 703.174H1075.36V743.413H1036.21V703.174ZM1036.21 661.211H1075.36V701.45H1036.21V661.211ZM1036.21 619.248H1075.36V659.487H1036.21V619.248ZM1036.21 577.28H1075.36V617.519H1036.21V577.28ZM1036.21 535.317H1075.36V575.556H1036.21V535.317ZM1036.21 493.354H1075.36V533.593H1036.21V493.354ZM1036.21 451.392H1075.36V491.631H1036.21V451.392ZM1036.21 409.423H1075.36V449.663H1036.21V409.423ZM1036.21 367.461H1075.36V407.7H1036.21V367.461ZM1036.21 325.498H1075.36V365.737H1036.21V325.498ZM1036.21 283.53H1075.36V323.769H1036.21V283.53ZM1036.21 241.567H1075.36V281.806H1036.21V241.567ZM1036.21 199.604H1075.36V239.843H1036.21V199.604ZM1036.21 157.636H1075.36V197.875H1036.21V157.636ZM1036.21 115.668H1075.36V155.907H1036.21V115.668ZM1036.21 73.7053H1075.36V113.944H1036.21V73.7053ZM1036.21 31.7372H1075.36V71.9763H1036.21V31.7372ZM1036.21 -10.2256H1075.36V30.0135H1036.21V-10.2256ZM1036.21 -52.1937H1075.36V-11.9546H1036.21V-52.1937ZM1036.21 -94.1618H1075.36V-53.9227H1036.21V-94.3421V-94.1618ZM995.233 829.083H1034.38V869.322H995.233V829.083ZM995.233 787.12H1034.38V827.36H995.233V787.12ZM995.233 745.152H1034.38V785.391H995.233V745.152ZM995.233 703.19H1034.38V743.429H995.233V703.19ZM995.233 661.227H1034.38V701.466H995.233V661.227ZM995.233 619.264H1034.38V659.503H995.233V619.264ZM995.233 577.296H1034.38V617.535H995.233V577.296ZM995.233 535.333H1034.38V575.572H995.233V535.333ZM995.233 493.37H1034.38V533.609H995.233V493.37ZM995.233 451.407H1034.38V491.647H995.233V451.407ZM995.233 409.439H1034.38V449.678H995.233V409.439ZM995.233 367.477H1034.38V407.716H995.233V367.477ZM995.233 325.514H1034.38V365.753H995.233V325.514ZM995.233 283.546H1034.38V323.785H995.233V283.546ZM995.233 241.583H1034.38V281.822H995.233V241.583ZM995.233 199.62H1034.38V239.859H995.233V199.62ZM995.233 157.652H1034.38V197.891H995.233V157.652ZM995.233 115.684H1034.38V155.923H995.233V115.684ZM995.233 73.7212H1034.38V113.96H995.233V73.7212ZM995.233 31.7531H1034.38V71.9922H995.233V31.7531ZM995.233 -10.2097H1034.38V30.0294H995.233V-10.2097ZM995.233 -52.1778H1034.38V-11.9387H995.233V-52.1778ZM995.233 -94.1459H1034.38V-53.9068H995.233V-94.3421V-94.1459ZM954.254 829.099H993.404V869.338H954.254V829.099ZM954.254 787.136H993.404V827.375H954.254V787.136ZM954.254 745.168H993.404V785.407H954.254V745.168ZM954.254 703.205H993.404V743.445H954.254V703.205ZM954.254 661.243H993.404V701.482H954.254V661.243ZM954.254 619.28H993.404V659.519H954.254V619.28ZM954.254 577.312H993.404V617.551H954.254V577.312ZM954.254 535.349H993.404V575.588H954.254V535.349ZM954.254 493.386H993.404V533.625H954.254V493.386ZM954.254 451.423H993.404V491.662H954.254V451.423ZM954.254 409.455H993.404V449.694H954.254V409.455ZM954.254 367.493H993.404V407.732H954.254V367.493ZM954.254 325.53H993.404V365.769H954.254V325.53ZM954.254 283.562H993.404V323.801H954.254V283.562ZM954.254 241.599H993.404V281.838H954.254V241.599ZM954.254 199.636H993.404V239.875H954.254V199.636ZM954.254 157.668H993.404V197.907H954.254V157.668ZM954.254 115.7H993.404V155.939H954.254V115.7ZM954.254 73.7371H993.404V113.976H954.254V73.7371ZM954.254 31.769H993.404V72.0081H954.254V31.769ZM954.254 -10.1938H993.404V30.0453H954.254V-10.1938ZM954.254 -52.1619H993.404V-11.9228H954.254V-52.1619ZM954.254 -94.13H993.404V-53.8909H954.254V-94.3421V-94.13ZM913.275 829.115H952.425V869.354H913.275V829.115ZM913.275 787.152H952.425V827.391H913.275V787.152ZM913.275 745.184H952.425V785.423H913.275V745.184ZM913.275 703.221H952.425V743.46H913.275V703.221ZM913.275 661.259H952.425V701.498H913.275V661.259ZM913.275 619.296H952.425V659.535H913.275V619.296ZM913.275 577.328H952.425V617.567H913.275V577.328ZM913.275 535.365H952.425V575.604H913.275V535.365ZM913.275 493.402H952.425V533.641H913.275V493.402ZM913.275 451.439H952.425V491.678H913.275V451.439ZM913.275 409.471H952.425V449.71H913.275V409.471ZM913.275 367.508H952.425V407.748H913.275V367.508ZM913.275 325.546H952.425V365.785H913.275V325.546ZM913.275 283.578H952.425V323.817H913.275V283.578ZM913.275 241.615H952.425V281.854H913.275V241.615ZM913.275 199.652H952.425V239.891H913.275V199.652ZM913.275 157.684H952.425V197.923H913.275V157.684ZM913.275 115.716H952.425V155.955H913.275V115.716ZM913.275 73.753H952.425V113.992H913.275V73.753ZM913.275 31.7849H952.425V72.024H913.275V31.7849ZM913.275 -10.1779H952.425V30.0612H913.275V-10.1779ZM913.275 -52.146H952.425V-11.9069H913.275V-52.146ZM913.275 -94.1141H952.425V-53.875H913.275V-94.3421V-94.1141ZM872.296 829.131H911.446V869.37H872.296V829.131ZM872.296 787.168H911.446V827.407H872.296V787.168ZM872.296 745.2H911.446V785.439H872.296V745.2ZM872.296 703.237H911.446V743.476H872.296V703.237ZM872.296 661.274H911.446V701.514H872.296V661.274ZM872.296 619.312H911.446V659.551H872.296V619.312ZM872.296 577.344H911.446V617.583H872.296V577.344ZM872.296 535.381H911.446V575.62H872.296V535.381ZM872.296 493.418H911.446V533.657H872.296V493.418ZM872.296 451.455H911.446V491.694H872.296V451.455ZM872.296 409.487H911.446V449.726H872.296V409.487ZM872.296 367.524H911.446V407.763H872.296V367.524ZM872.296 325.562H911.446V365.801H872.296V325.562ZM872.296 283.593H911.446V323.833H872.296V283.593ZM872.296 241.631H911.446V281.87H872.296V241.631ZM872.296 199.668H911.446V239.907H872.296V199.668ZM872.296 157.7H911.446V197.939H872.296V157.7ZM872.296 115.732H911.446V155.971H872.296V115.732ZM872.296 73.7689H911.446V114.008H872.296V73.7689ZM872.296 31.8008H911.446V72.0399H872.296V31.8008ZM872.296 -10.162H911.446V30.0771H872.296V-10.162ZM872.296 -52.1301H911.446V-11.891H872.296V-52.1301ZM872.296 -94.0982H911.446V-53.8591H872.296V-94.3421V-94.0982ZM831.318 829.147H870.467V869.386H831.318V829.147ZM831.318 787.184H870.467V827.423H831.318V787.184ZM831.318 745.216H870.467V785.455H831.318V745.216ZM831.318 703.253H870.467V743.492H831.318V703.253ZM831.318 661.29H870.467V701.53H831.318V661.29ZM831.318 619.328H870.467V659.567H831.318V619.328ZM831.318 577.36H870.467V617.599H831.318V577.36ZM831.318 535.397H870.467V575.636H831.318V535.397ZM831.318 493.434H870.467V533.673H831.318V493.434ZM831.318 451.471H870.467V491.71H831.318V451.471ZM831.318 409.503H870.467V449.742H831.318V409.503ZM831.318 367.54H870.467V407.779H831.318V367.54ZM831.318 325.577H870.467V365.817H831.318V325.577ZM831.318 283.609H870.467V323.848H831.318V283.609ZM831.318 241.647H870.467V281.886H831.318V241.647ZM831.318 199.684H870.467V239.923H831.318V199.684ZM831.318 157.716H870.467V197.955H831.318V157.716ZM831.318 115.748H870.467V155.987H831.318V115.748ZM831.318 73.7848H870.467V114.024H831.318V73.7848ZM831.318 31.8167H870.467V72.0558H831.318V31.8167ZM831.318 -10.1461H870.467V30.093H831.318V-10.1461ZM831.318 -52.1142H870.467V-11.8751H831.318V-52.1142ZM831.318 -94.0823H870.467V-53.8432H831.318V-94.3421V-94.0823ZM790.339 829.163H829.489V869.402H790.339V829.163ZM790.339 787.2H829.489V827.439H790.339V787.2ZM790.339 745.232H829.489V785.471H790.339V745.232ZM790.339 703.269H829.489V743.508H790.339V703.269ZM790.339 661.306H829.489V701.545H790.339V661.306ZM790.339 619.343H829.489V659.583H790.339V619.343ZM790.339 577.375H829.489V617.614H790.339V577.375ZM790.339 535.413H829.489V575.652H790.339V535.413ZM790.339 493.45H829.489V533.689H790.339V493.45ZM790.339 451.487H829.489V491.726H790.339V451.487ZM790.339 409.519H829.489V449.758H790.339V409.519ZM790.339 367.556H829.489V407.795H790.339V367.556ZM790.339 325.593H829.489V365.832H790.339V325.593ZM790.339 283.625H829.489V323.864H790.339V283.625ZM790.339 241.662H829.489V281.902H790.339V241.662ZM790.339 199.7H829.489V239.939H790.339V199.7ZM790.339 157.732H829.489V197.971H790.339V157.732ZM790.339 115.764H829.489V156.003H790.339V115.764ZM790.339 73.8007H829.489V114.04H790.339V73.8007ZM790.339 31.8326H829.489V72.0717H790.339V31.8326ZM790.339 -10.1302H829.489V30.1089H790.339V-10.1302ZM790.339 -52.0982H829.489V-11.8592H790.339V-52.0982ZM790.339 -94.0663H829.489V-53.8273H790.339V-94.3421V-94.0663ZM749.36 829.179H788.51V869.418H749.36V829.179ZM749.36 787.216H788.51V827.455H749.36V787.216ZM749.36 745.248H788.51V785.487H749.36V745.248ZM749.36 703.285H788.51V743.524H749.36V703.285ZM749.36 661.322H788.51V701.561H749.36V661.322ZM749.36 619.359H788.51V659.599H749.36V619.359ZM749.36 577.391H788.51V617.63H749.36V577.391ZM749.36 535.429H788.51V575.668H749.36V535.429ZM749.36 493.466H788.51V533.705H749.36V493.466ZM749.36 451.503H788.51V491.742H749.36V451.503ZM749.36 409.535H788.51V449.774H749.36V409.535ZM749.36 367.572H788.51V407.811H749.36V367.572ZM749.36 325.609H788.51V365.848H749.36V325.609ZM749.36 283.641H788.51V323.88H749.36V283.641ZM749.36 241.678H788.51V281.917H749.36V241.678ZM749.36 199.716H788.51V239.955H749.36V199.716ZM749.36 157.748H788.51V197.987H749.36V157.748ZM749.36 115.779H788.51V156.019H749.36V115.779ZM749.36 73.8166H788.51V114.056H749.36V73.8166ZM749.36 31.8486H788.51V72.0876H749.36V31.8486ZM749.36 -10.1142H788.51V30.1249H749.36V-10.1142ZM749.36 -52.0823H788.51V-11.8432H749.36V-52.0823ZM749.36 -94.0504H788.51V-53.8113H749.36V-94.3421V-94.0504ZM708.381 829.195H747.531V869.434H708.381V829.195ZM708.381 787.232H747.531V827.471H708.381V787.232ZM708.381 745.264H747.531V785.503H708.381V745.264ZM708.381 703.301H747.531V743.54H708.381V703.301ZM708.381 661.338H747.531V701.577H708.381V661.338ZM708.381 619.375H747.531V659.614H708.381V619.375ZM708.381 577.407H747.531V617.646H708.381V577.407ZM708.381 535.444H747.531V575.684H708.381V535.444ZM708.381 493.482H747.531V533.721H708.381V493.482ZM708.381 451.519H747.531V491.758H708.381V451.519ZM708.381 409.551H747.531V449.79H708.381V409.551ZM708.381 367.588H747.531V407.827H708.381V367.588ZM708.381 325.625H747.531V365.864H708.381V325.625ZM708.381 283.657H747.531V323.896H708.381V283.657ZM708.381 241.694H747.531V281.933H708.381V241.694ZM708.381 199.732H747.531V239.971H708.381V199.732ZM708.381 157.763H747.531V198.003H708.381V157.763ZM708.381 115.795H747.531V156.034H708.381V115.795ZM708.381 73.8326H747.531V114.072H708.381V73.8326ZM708.381 31.8645H747.531V72.1035H708.381V31.8645ZM708.381 -10.0983H747.531V30.1408H708.381V-10.0983ZM708.381 -52.0664H747.531V-11.8273H708.381V-52.0664ZM708.381 -94.0345H747.531V-53.7954H708.381V-94.3421V-94.0345ZM667.403 829.211H706.552V869.45H667.403V829.211ZM667.403 787.248H706.552V827.487H667.403V787.248ZM667.403 745.28H706.552V785.519H667.403V745.28ZM667.403 703.317H706.552V743.556H667.403V703.317ZM667.403 661.354H706.552V701.593H667.403V661.354ZM667.403 619.391H706.552V659.63H667.403V619.391ZM667.403 577.423H706.552V617.662H667.403V577.423ZM667.403 535.46H706.552V575.699H667.403V535.46ZM667.403 493.498H706.552V533.737H667.403V493.498ZM667.403 451.535H706.552V491.774H667.403V451.535ZM667.403 409.567H706.552V449.806H667.403V409.567ZM667.403 367.604H706.552V407.843H667.403V367.604ZM667.403 325.641H706.552V365.88H667.403V325.641ZM667.403 283.673H706.552V323.912H667.403V283.673ZM667.403 241.71H706.552V281.949H667.403V241.71ZM667.403 199.747H706.552V239.987H667.403V199.747ZM667.403 157.779H706.552V198.018H667.403V157.779ZM667.403 115.811H706.552V156.05H667.403V115.811ZM667.403 73.8485H706.552V114.088H667.403V73.8485ZM667.403 31.8804H706.552V72.1195H667.403V31.8804ZM667.403 -10.0824H706.552V30.1567H667.403V-10.0824ZM667.403 -52.0505H706.552V-11.8114H667.403V-52.0505ZM667.403 -94.0186H706.552V-53.7795H667.403V-94.3421V-94.0186ZM626.424 829.226H665.574V869.465H626.424V829.226ZM626.424 787.264H665.574V827.503H626.424V787.264ZM626.424 745.295H665.574V785.535H626.424V745.295ZM626.424 703.333H665.574V743.572H626.424V703.333ZM626.424 661.37H665.574V701.609H626.424V661.37ZM626.424 619.407H665.574V659.646H626.424V619.407ZM626.424 577.439H665.574V617.678H626.424V577.439ZM626.424 535.476H665.574V575.715H626.424V535.476ZM626.424 493.513H665.574V533.753H626.424V493.513ZM626.424 451.551H665.574V491.79H626.424V451.551ZM626.424 409.583H665.574V449.822H626.424V409.583ZM626.424 367.62H665.574V407.859H626.424V367.62ZM626.424 325.657H665.574V365.896H626.424V325.657ZM626.424 283.689H665.574V323.928H626.424V283.689ZM626.424 241.726H665.574V281.965H626.424V241.726ZM626.424 199.763H665.574V240.002H626.424V199.763ZM626.424 157.795H665.574V198.034H626.424V157.795ZM626.424 115.827H665.574V156.066H626.424V115.827ZM626.424 73.8644H665.574V114.103H626.424V73.8644ZM626.424 31.8963H665.574V72.1354H626.424V31.8963ZM626.424 -10.0665H665.574V30.1726H626.424V-10.0665ZM626.424 -52.0346H665.574V-11.7955H626.424V-52.0346ZM626.424 -94.0027H665.574V-53.7636H626.424V-94.3421V-94.0027ZM585.445 829.242H624.595V869.481H585.445V829.242ZM585.445 787.28H624.595V827.519H585.445V787.28ZM585.445 745.311H624.595V785.551H585.445V745.311ZM585.445 703.349H624.595V743.588H585.445V703.349ZM585.445 661.386H624.595V701.625H585.445V661.386ZM585.445 619.423H624.595V659.662H585.445V619.423ZM585.445 577.455H624.595V617.694H585.445V577.455ZM585.445 535.492H624.595V575.731H585.445V535.492ZM585.445 493.529H624.595V533.768H585.445V493.529ZM585.445 451.567H624.595V491.806H585.445V451.567ZM585.445 409.599H624.595V449.838H585.445V409.599ZM585.445 367.636H624.595V407.875H585.445V367.636ZM585.445 325.673H624.595V365.912H585.445V325.673ZM585.445 283.705H624.595V323.944H585.445V283.705ZM585.445 241.742H624.595V281.981H585.445V241.742ZM585.445 199.779H624.595V240.018H585.445V199.779ZM585.445 157.811H624.595V198.05H585.445V157.811ZM585.445 115.843H624.595V156.082H585.445V115.843ZM585.445 73.8803H624.595V114.119H585.445V73.8803ZM585.445 31.9122H624.595V72.1513H585.445V31.9122ZM585.445 -10.0506H624.595V30.1885H585.445V-10.0506ZM585.445 -52.0187H624.595V-11.7796H585.445V-52.0187ZM585.445 -93.9868H624.595V-53.7477H585.445V-94.3421V-93.9868ZM544.466 829.258H583.616V869.497H544.466V829.258ZM544.466 787.295H583.616V827.535H544.466V787.295ZM544.466 745.327H583.616V785.566H544.466V745.327ZM544.466 703.365H583.616V743.604H544.466V703.365ZM544.466 661.402H583.616V701.641H544.466V661.402ZM544.466 619.439H583.616V659.678H544.466V619.439ZM544.466 577.471H583.616V617.71H544.466V577.471ZM544.466 535.508H583.616V575.747H544.466V535.508ZM544.466 493.545H583.616V533.784H544.466V493.545ZM544.466 451.583H583.616V491.822H544.466V451.583ZM544.466 409.614H583.616V449.854H544.466V409.614ZM544.466 367.652H583.616V407.891H544.466V367.652ZM544.466 325.689H583.616V365.928H544.466V325.689ZM544.466 283.721H583.616V323.96H544.466V283.721ZM544.466 241.758H583.616V281.997H544.466V241.758ZM544.466 199.795H583.616V240.034H544.466V199.795ZM544.466 157.827H583.616V198.066H544.466V157.827ZM544.466 115.859H583.616V156.098H544.466V115.859ZM544.466 73.8962H583.616V114.135H544.466V73.8962ZM544.466 31.9281H583.616V72.1672H544.466V31.9281ZM544.466 -10.0347H583.616V30.2044H544.466V-10.0347ZM544.466 -52.0028H583.616V-11.7637H544.466V-52.0028ZM544.466 -93.9709H583.616V-53.7318H544.466V-94.3421V-93.9709ZM503.488 829.274H542.637V869.513H503.488V829.274ZM503.488 787.311H542.637V827.55H503.488V787.311ZM503.488 745.343H542.637V785.582H503.488V745.343ZM503.488 703.38H542.637V743.62H503.488V703.38ZM503.488 661.418H542.637V701.657H503.488V661.418ZM503.488 619.455H542.637V659.694H503.488V619.455ZM503.488 577.487H542.637V617.726H503.488V577.487ZM503.488 535.524H542.637V575.763H503.488V535.524ZM503.488 493.561H542.637V533.8H503.488V493.561ZM503.488 451.598H542.637V491.838H503.488V451.598ZM503.488 409.63H542.637V449.869H503.488V409.63ZM503.488 367.668H542.637V407.907H503.488V367.668ZM503.488 325.705H542.637V365.944H503.488V325.705ZM503.488 283.737H542.637V323.976H503.488V283.737ZM503.488 241.774H542.637V282.013H503.488V241.774ZM503.488 199.811H542.637V240.05H503.488V199.811ZM503.488 157.843H542.637V198.082H503.488V157.843ZM503.488 115.875H542.637V156.114H503.488V115.875ZM503.488 73.9121H542.637V114.151H503.488V73.9121ZM503.488 31.944H542.637V72.1831H503.488V31.944ZM503.488 -10.0188H542.637V30.2203H503.488V-10.0188ZM503.488 -51.9869H542.637V-11.7478H503.488V-51.9869ZM503.488 -93.955H542.637V-53.7159H503.488V-94.3421V-93.955ZM462.509 829.29H501.659V869.529H462.509V829.29ZM462.509 787.327H501.659V827.566H462.509V787.327ZM462.509 745.359H501.659V785.598H462.509V745.359ZM462.509 703.396H501.659V743.635H462.509V703.396ZM462.509 661.434H501.659V701.673H462.509V661.434ZM462.509 619.471H501.659V659.71H462.509V619.471ZM462.509 577.503H501.659V617.742H462.509V577.503ZM462.509 535.54H501.659V575.779H462.509V535.54ZM462.509 493.577H501.659V533.816H462.509V493.577ZM462.509 451.614H501.659V491.853H462.509V451.614ZM462.509 409.646H501.659V449.885H462.509V409.646ZM462.509 367.683H501.659V407.923H462.509V367.683ZM462.509 325.721H501.659V365.96H462.509V325.721ZM462.509 283.753H501.659V323.992H462.509V283.753ZM462.509 241.79H501.659V282.029H462.509V241.79ZM462.509 199.827H501.659V240.066H462.509V199.827ZM462.509 157.859H501.659V198.098H462.509V157.859ZM462.509 115.891H501.659V156.13H462.509V115.891ZM462.509 73.928H501.659V114.167H462.509V73.928ZM462.509 31.9599H501.659V72.199H462.509V31.9599ZM462.509 -10.0029H501.659V30.2362H462.509V-10.0029ZM462.509 -51.971H501.659V-11.7319H462.509V-51.971ZM462.509 -93.9391H501.659V-53.7H462.509V-94.3421V-93.9391ZM421.53 829.306H460.68V869.545H421.53V829.306ZM421.53 787.343H460.68V827.582H421.53V787.343ZM421.53 745.375H460.68V785.614H421.53V745.375ZM421.53 703.412H460.68V743.651H421.53V703.412ZM421.53 661.449H460.68V701.689H421.53V661.449ZM421.53 619.487H460.68V659.726H421.53V619.487ZM421.53 577.519H460.68V617.758H421.53V577.519ZM421.53 535.556H460.68V575.795H421.53V535.556ZM421.53 493.593H460.68V533.832H421.53V493.593ZM421.53 451.63H460.68V491.869H421.53V451.63ZM421.53 409.662H460.68V449.901H421.53V409.662ZM421.53 367.699H460.68V407.938H421.53V367.699ZM421.53 325.737H460.68V365.976H421.53V325.737ZM421.53 283.768H460.68V324.008H421.53V283.768ZM421.53 241.806H460.68V282.045H421.53V241.806ZM421.53 199.843H460.68V240.082H421.53V199.843ZM421.53 157.875H460.68V198.114H421.53V157.875ZM421.53 115.907H460.68V156.146H421.53V115.907ZM421.53 73.9439H460.68V114.183H421.53V73.9439ZM421.53 31.9758H460.68V72.2149H421.53V31.9758ZM421.53 -9.98695H460.68V30.2521H421.53V-9.98695ZM421.53 -51.955H460.68V-11.716H421.53V-51.955ZM421.53 -93.9231H460.68V-53.684H421.53V-94.3421V-93.9231ZM380.551 829.322H419.701V869.561H380.551V829.322ZM380.551 787.359H419.701V827.598H380.551V787.359ZM380.551 745.391H419.701V785.63H380.551V745.391ZM380.551 703.428H419.701V743.667H380.551V703.428ZM380.551 661.465H419.701V701.705H380.551V661.465ZM380.551 619.503H419.701V659.742H380.551V619.503ZM380.551 577.535H419.701V617.774H380.551V577.535ZM380.551 535.572H419.701V575.811H380.551V535.572ZM380.551 493.609H419.701V533.848H380.551V493.609ZM380.551 451.646H419.701V491.885H380.551V451.646ZM380.551 409.678H419.701V449.917H380.551V409.678ZM380.551 367.715H419.701V407.954H380.551V367.715ZM380.551 325.753H419.701V365.992H380.551V325.753ZM380.551 283.784H419.701V324.023H380.551V283.784ZM380.551 241.822H419.701V282.061H380.551V241.822ZM380.551 199.859H419.701V240.098H380.551V199.859ZM380.551 157.891H419.701V198.13H380.551V157.891ZM380.551 115.923H419.701V156.162H380.551V115.923ZM380.551 73.9598H419.701V114.199H380.551V73.9598ZM380.551 31.9917H419.701V72.2308H380.551V31.9917ZM380.551 -9.97104H419.701V30.268H380.551V-9.97104ZM380.551 -51.9391H419.701V-11.7H380.551V-51.9391ZM380.551 -93.9072H419.701V-53.6681H380.551V-94.3421V-93.9072ZM339.573 829.338H378.722V869.577H339.573V829.338ZM339.573 787.375H378.722V827.614H339.573V787.375ZM339.573 745.407H378.722V785.646H339.573V745.407ZM339.573 703.444H378.722V743.683H339.573V703.444ZM339.573 661.481H378.722V701.72H339.573V661.481ZM339.573 619.519H378.722V659.758H339.573V619.519ZM339.573 577.55H378.722V617.79H339.573V577.55ZM339.573 535.588H378.722V575.827H339.573V535.588ZM339.573 493.625H378.722V533.864H339.573V493.625ZM339.573 451.662H378.722V491.901H339.573V451.662ZM339.573 409.694H378.722V449.933H339.573V409.694ZM339.573 367.731H378.722V407.97H339.573V367.731ZM339.573 325.768H378.722V366.007H339.573V325.768ZM339.573 283.8H378.722V324.039H339.573V283.8ZM339.573 241.838H378.722V282.077H339.573V241.838ZM339.573 199.875H378.722V240.114H339.573V199.875ZM339.573 157.907H378.722V198.146H339.573V157.907ZM339.573 115.939H378.722V156.178H339.573V115.939ZM339.573 73.9758H378.722V114.215H339.573V73.9758ZM339.573 32.0077H378.722V72.2467H339.573V32.0077ZM339.573 -9.95513H378.722V30.284H339.573V-9.95513ZM339.573 -51.9232H378.722V-11.6841H339.573V-51.9232ZM339.573 -93.8913H378.722V-53.6522H339.573V-94.3421V-93.8913ZM298.594 829.354H337.744V869.593H298.594V829.354ZM298.594 787.391H337.744V827.63H298.594V787.391ZM298.594 745.423H337.744V785.662H298.594V745.423ZM298.594 703.46H337.744V743.699H298.594V703.46ZM298.594 661.497H337.744V701.736H298.594V661.497ZM298.594 619.534H337.744V659.774H298.594V619.534ZM298.594 577.566H337.744V617.805H298.594V577.566ZM298.594 535.604H337.744V575.843H298.594V535.604ZM298.594 493.641H337.744V533.88H298.594V493.641ZM298.594 451.678H337.744V491.917H298.594V451.678ZM298.594 409.71H337.744V449.949H298.594V409.71ZM298.594 367.747H337.744V407.986H298.594V367.747ZM298.594 325.784H337.744V366.023H298.594V325.784ZM298.594 283.816H337.744V324.055H298.594V283.816ZM298.594 241.853H337.744V282.093H298.594V241.853ZM298.594 199.891H337.744V240.13H298.594V199.891ZM298.594 157.923H337.744V198.162H298.594V157.923ZM298.594 115.954H337.744V156.194H298.594V115.954ZM298.594 73.9917H337.744V114.231H298.594V73.9917ZM298.594 32.0236H337.744V72.2627H298.594V32.0236ZM298.594 -9.93922H337.744V30.2999H298.594V-9.93922ZM298.594 -51.9073H337.744V-11.6682H298.594V-51.9073ZM298.594 -93.8754H337.744V-53.6363H298.594V-94.3421V-93.8754ZM257.615 829.37H296.765V869.609H257.615V829.37ZM257.615 787.407H296.765V827.646H257.615V787.407ZM257.615 745.439H296.765V785.678H257.615V745.439ZM257.615 703.476H296.765V743.715H257.615V703.476ZM257.615 661.513H296.765V701.752H257.615V661.513ZM257.615 619.55H296.765V659.789H257.615V619.55ZM257.615 577.582H296.765V617.821H257.615V577.582ZM257.615 535.619H296.765V575.859H257.615V535.619ZM257.615 493.657H296.765V533.896H257.615V493.657ZM257.615 451.694H296.765V491.933H257.615V451.694ZM257.615 409.726H296.765V449.965H257.615V409.726ZM257.615 367.763H296.765V408.002H257.615V367.763ZM257.615 325.8H296.765V366.039H257.615V325.8ZM257.615 283.832H296.765V324.071H257.615V283.832ZM257.615 241.869H296.765V282.108H257.615V241.869ZM257.615 199.907H296.765V240.146H257.615V199.907ZM257.615 157.938H296.765V198.178H257.615V157.938ZM257.615 115.97H296.765V156.209H257.615V115.97ZM257.615 74.0076H296.765V114.247H257.615V74.0076ZM257.615 32.0395H296.765V72.2786H257.615V32.0395ZM257.615 -9.92331H296.765V30.3158H257.615V-9.92331ZM257.615 -51.8914H296.765V-11.6523H257.615V-51.8914ZM257.615 -93.8595H296.765V-53.6204H257.615V-94.3421V-93.8595ZM216.637 829.386H255.786V869.625H216.637V829.386ZM216.637 787.423H255.786V827.662H216.637V787.423ZM216.637 745.455H255.786V785.694H216.637V745.455ZM216.637 703.492H255.786V743.731H216.637V703.492ZM216.637 661.529H255.786V701.768H216.637V661.529ZM216.637 619.566H255.786V659.805H216.637V619.566ZM216.637 577.598H255.786V617.837H216.637V577.598ZM216.637 535.635H255.786V575.874H216.637V535.635ZM216.637 493.673H255.786V533.912H216.637V493.673ZM216.637 451.71H255.786V491.949H216.637V451.71ZM216.637 409.742H255.786V449.981H216.637V409.742ZM216.637 367.779H255.786V408.018H216.637V367.779ZM216.637 325.816H255.786V366.055H216.637V325.816ZM216.637 283.848H255.786V324.087H216.637V283.848ZM216.637 241.885H255.786V282.124H216.637V241.885ZM216.637 199.922H255.786V240.162H216.637V199.922ZM216.637 157.954H255.786V198.193H216.637V157.954ZM216.637 115.986H255.786V156.225H216.637V115.986ZM216.637 74.0235H255.786V114.263H216.637V74.0235ZM216.637 32.0554H255.786V72.2945H216.637V32.0554ZM216.637 -9.9074H255.786V30.3317H216.637V-9.9074ZM216.637 -51.8755H255.786V-11.6364H216.637V-51.8755ZM216.637 -93.8436H255.786V-53.6045H216.637V-94.3421V-93.8436ZM175.658 829.401H214.808V869.641H175.658V829.401ZM175.658 787.439H214.808V827.678H175.658V787.439ZM175.658 745.471H214.808V785.71H175.658V745.471ZM175.658 703.508H214.808V743.747H175.658V703.508ZM175.658 661.545H214.808V701.784H175.658V661.545ZM175.658 619.582H214.808V659.821H175.658V619.582ZM175.658 577.614H214.808V617.853H175.658V577.614ZM175.658 535.651H214.808V575.89H175.658V535.651ZM175.658 493.689H214.808V533.928H175.658V493.689ZM175.658 451.726H214.808V491.965H175.658V451.726ZM175.658 409.758H214.808V449.997H175.658V409.758ZM175.658 367.795H214.808V408.034H175.658V367.795ZM175.658 325.832H214.808V366.071H175.658V325.832ZM175.658 283.864H214.808V324.103H175.658V283.864ZM175.658 241.901H214.808V282.14H175.658V241.901ZM175.658 199.938H214.808V240.177H175.658V199.938ZM175.658 157.97H214.808V198.209H175.658V157.97ZM175.658 116.002H214.808V156.241H175.658V116.002ZM175.658 74.0394H214.808V114.278H175.658V74.0394ZM175.658 32.0713H214.808V72.3104H175.658V32.0713ZM175.658 -9.89149H214.808V30.3476H175.658V-9.89149ZM175.658 -51.8596H214.808V-11.6205H175.658V-51.8596ZM175.658 -93.8277H214.808V-53.5886H175.658V-94.3421V-93.8277ZM134.679 829.417H173.829V869.656H134.679V829.417ZM134.679 787.455H173.829V827.694H134.679V787.455ZM134.679 745.486H173.829V785.726H134.679V745.486ZM134.679 703.524H173.829V743.763H134.679V703.524ZM134.679 661.561H173.829V701.8H134.679V661.561ZM134.679 619.598H173.829V659.837H134.679V619.598ZM134.679 577.63H173.829V617.869H134.679V577.63ZM134.679 535.667H173.829V575.906H134.679V535.667ZM134.679 493.704H173.829V533.943H134.679V493.704ZM134.679 451.742H173.829V491.981H134.679V451.742ZM134.679 409.774H173.829V450.013H134.679V409.774ZM134.679 367.811H173.829V408.05H134.679V367.811ZM134.679 325.848H173.829V366.087H134.679V325.848ZM134.679 283.88H173.829V324.119H134.679V283.88ZM134.679 241.917H173.829V282.156H134.679V241.917ZM134.679 199.954H173.829V240.193H134.679V199.954ZM134.679 157.986H173.829V198.225H134.679V157.986ZM134.679 116.018H173.829V156.257H134.679V116.018ZM134.679 74.0553H173.829V114.294H134.679V74.0553ZM134.679 32.0872H173.829V72.3263H134.679V32.0872ZM134.679 -9.87557H173.829V30.3635H134.679V-9.87557ZM134.679 -51.8437H173.829V-11.6046H134.679V-51.8437ZM134.679 -93.8118H173.829V-53.5727H134.679V-94.3421V-93.8118ZM93.7003 829.433H132.85V869.672H93.7003V829.433ZM93.7003 787.47H132.85V827.71H93.7003V787.47ZM93.7003 745.502H132.85V785.741H93.7003V745.502ZM93.7003 703.54H132.85V743.779H93.7003V703.54ZM93.7003 661.577H132.85V701.816H93.7003V661.577ZM93.7003 619.614H132.85V659.853H93.7003V619.614ZM93.7003 577.646H132.85V617.885H93.7003V577.646ZM93.7003 535.683H132.85V575.922H93.7003V535.683ZM93.7003 493.72H132.85V533.959H93.7003V493.72ZM93.7003 451.758H132.85V491.997H93.7003V451.758ZM93.7003 409.789H132.85V450.029H93.7003V409.789ZM93.7003 367.827H132.85V408.066H93.7003V367.827ZM93.7003 325.864H132.85V366.103H93.7003V325.864ZM93.7003 283.896H132.85V324.135H93.7003V283.896ZM93.7003 241.933H132.85V282.172H93.7003V241.933ZM93.7003 199.97H132.85V240.209H93.7003V199.97ZM93.7003 158.002H132.85V198.241H93.7003V158.002ZM93.7003 116.034H132.85V156.273H93.7003V116.034ZM93.7003 74.0712H132.85V114.31H93.7003V74.0712ZM93.7003 32.1031H132.85V72.3422H93.7003V32.1031ZM93.7003 -9.85966H132.85V30.3794H93.7003V-9.85966ZM93.7003 -51.8278H132.85V-11.5887H93.7003V-51.8278ZM93.7003 -93.7959H132.85V-53.5568H93.7003V-94.3421V-93.7959ZM52.7215 829.449H91.8713V869.688H52.7215V829.449ZM52.7215 787.486H91.8713V827.725H52.7215V787.486ZM52.7215 745.518H91.8713V785.757H52.7215V745.518ZM52.7215 703.555H91.8713V743.795H52.7215V703.555ZM52.7215 661.593H91.8713V701.832H52.7215V661.593ZM52.7215 619.63H91.8713V659.869H52.7215V619.63ZM52.7215 577.662H91.8713V617.901H52.7215V577.662ZM52.7215 535.699H91.8713V575.938H52.7215V535.699ZM52.7215 493.736H91.8713V533.975H52.7215V493.736ZM52.7215 451.773H91.8713V492.013H52.7215V451.773ZM52.7215 409.805H91.8713V450.044H52.7215V409.805ZM52.7215 367.843H91.8713V408.082H52.7215V367.843ZM52.7215 325.88H91.8713V366.119H52.7215V325.88ZM52.7215 283.912H91.8713V324.151H52.7215V283.912ZM52.7215 241.949H91.8713V282.188H52.7215V241.949ZM52.7215 199.986H91.8713V240.225H52.7215V199.986ZM52.7215 158.018H91.8713V198.257H52.7215V158.018ZM52.7215 116.05H91.8713V156.289H52.7215V116.05ZM52.7215 74.0871H91.8713V114.326H52.7215V74.0871ZM52.7215 32.119H91.8713V72.3581H52.7215V32.119ZM52.7215 -9.84375H91.8713V30.3953H52.7215V-9.84375ZM52.7215 -51.8118H91.8713V-11.5728H52.7215V-51.8118ZM52.7215 -93.7799H91.8713V-53.5409H52.7215V-94.3421V-93.7799ZM11.7428 829.465H50.8925V869.704H11.7428V829.465ZM11.7428 787.502H50.8925V827.741H11.7428V787.502ZM11.7428 745.534H50.8925V785.773H11.7428V745.534ZM11.7428 703.571H50.8925V743.81H11.7428V703.571ZM11.7428 661.609H50.8925V701.848H11.7428V661.609ZM11.7428 619.646H50.8925V659.885H11.7428V619.646ZM11.7428 577.678H50.8925V617.917H11.7428V577.678ZM11.7428 535.715H50.8925V575.954H11.7428V535.715ZM11.7428 493.752H50.8925V533.991H11.7428V493.752ZM11.7428 451.789H50.8925V492.028H11.7428V451.789ZM11.7428 409.821H50.8925V450.06H11.7428V409.821ZM11.7428 367.858H50.8925V408.098H11.7428V367.858ZM11.7428 325.896H50.8925V366.135H11.7428V325.896ZM11.7428 283.928H50.8925V324.167H11.7428V283.928ZM11.7428 241.965H50.8925V282.204H11.7428V241.965ZM11.7428 200.002H50.8925V240.241H11.7428V200.002ZM11.7428 158.034H50.8925V198.273H11.7428V158.034ZM11.7428 116.066H50.8925V156.305H11.7428V116.066ZM11.7428 74.103H50.8925V114.342H11.7428V74.103ZM11.7428 32.135H50.8925V72.374H11.7428V32.135ZM11.7428 -9.82784H50.8925V30.4113H11.7428V-9.82784ZM11.7428 -51.7959H50.8925V-11.5568H11.7428V-51.7959ZM11.7428 -93.764H50.8925V-53.5249H11.7428V-94.3421V-93.764ZM-29.2359 829.481H9.91379V869.72H-29.2359V829.481ZM-29.2359 787.518H9.91379V827.757H-29.2359V787.518ZM-29.2359 745.55H9.91379V785.789H-29.2359V745.55ZM-29.2359 703.587H9.91379V743.826H-29.2359V703.587ZM-29.2359 661.625H9.91379V701.864H-29.2359V661.625ZM-29.2359 619.662H9.91379V659.901H-29.2359V619.662ZM-29.2359 577.694H9.91379V617.933H-29.2359V577.694ZM-29.2359 535.731H9.91379V575.97H-29.2359V535.731ZM-29.2359 493.768H9.91379V534.007H-29.2359V493.768ZM-29.2359 451.805H9.91379V492.044H-29.2359V451.805ZM-29.2359 409.837H9.91379V450.076H-29.2359V409.837ZM-29.2359 367.874H9.91379V408.113H-29.2359V367.874ZM-29.2359 325.912H9.91379V366.151H-29.2359V325.912ZM-29.2359 283.944H9.91379V324.183H-29.2359V283.944ZM-29.2359 241.981H9.91379V282.22H-29.2359V241.981ZM-29.2359 200.018H9.91379V240.257H-29.2359V200.018ZM-29.2359 158.05H9.91379V198.289H-29.2359V158.05ZM-29.2359 116.082H9.91379V156.321H-29.2359V116.082ZM-29.2359 74.1189H9.91379V114.358H-29.2359V74.1189ZM-29.2359 32.1509H9.91379V72.39H-29.2359V32.1509ZM-29.2359 -9.81193H9.91379V30.4272H-29.2359V-9.81193ZM-29.2359 -51.78H9.91379V-11.5409H-29.2359V-51.78ZM-29.2359 -93.7481H9.91379V-53.509H-29.2359V-94.3421V-93.7481ZM-70.2147 829.497H-31.065V869.736H-70.2147V829.497ZM-70.2147 787.534H-31.065V827.773H-70.2147V787.534ZM-70.2147 745.566H-31.065V785.805H-70.2147V745.566ZM-70.2147 703.603H-31.065V743.842H-70.2147V703.603ZM-70.2147 661.64H-31.065V701.879H-70.2147V661.64ZM-70.2147 619.678H-31.065V659.917H-70.2147V619.678ZM-70.2147 577.71H-31.065V617.949H-70.2147V577.71ZM-70.2147 535.747H-31.065V575.986H-70.2147V535.747ZM-70.2147 493.784H-31.065V534.023H-70.2147V493.784ZM-70.2147 451.821H-31.065V492.06H-70.2147V451.821ZM-70.2147 409.853H-31.065V450.092H-70.2147V409.853ZM-70.2147 367.89H-31.065V408.129H-70.2147V367.89ZM-70.2147 325.928H-31.065V366.167H-70.2147V325.928ZM-70.2147 283.959H-31.065V324.198H-70.2147V283.959ZM-70.2147 241.997H-31.065V282.236H-70.2147V241.997ZM-70.2147 200.034H-31.065V240.273H-70.2147V200.034ZM-70.2147 158.066H-31.065V198.305H-70.2147V158.066ZM-70.2147 116.098H-31.065V156.337H-70.2147V116.098ZM-70.2147 74.1349H-31.065V114.374H-70.2147V74.1349ZM-70.2147 32.1668H-31.065V72.4059H-70.2147V32.1668ZM-70.2147 -9.79602H-31.065V30.4431H-70.2147V-9.79602ZM-70.2147 -51.7641H-31.065V-11.525H-70.2147V-51.7641ZM-70.2147 -93.7322H-31.065V-53.4931H-70.2147V-94.3421V-93.7322ZM-111.171 828.908H-72.0213V869.147H-111.171V828.908ZM-111.171 786.945H-72.0213V827.184H-111.171V786.945ZM-111.171 744.977H-72.0213V785.216H-111.171V744.977ZM-111.171 703.014H-72.0213V743.254H-111.171V703.014ZM-111.171 661.052H-72.0213V701.291H-111.171V661.052ZM-111.171 619.089H-72.0213V659.328H-111.171V619.089ZM-111.171 577.121H-72.0213V617.36H-111.171V577.121ZM-111.171 535.158H-72.0213V575.397H-111.171V535.158ZM-111.171 493.195H-72.0213V533.434H-111.171V493.195ZM-111.171 451.232H-72.0213V491.472H-111.171V451.232ZM-111.171 409.264H-72.0213V449.503H-111.171V409.264ZM-111.171 367.302H-72.0213V407.541H-111.171V367.302ZM-111.171 325.339H-72.0213V365.578H-111.171V325.339ZM-111.171 283.371H-72.0213V323.61H-111.171V283.371ZM-111.171 241.408H-72.0213V281.647H-111.171V241.408ZM-111.171 199.445H-72.0213V239.684H-111.171V199.445ZM-111.171 157.477H-72.0213V197.716H-111.171V157.477ZM-111.171 115.509H-72.0213V155.748H-111.171V115.509ZM-111.171 73.5462H-72.0213V113.785H-111.171V73.5462ZM-111.171 31.5781H-72.0213V71.8171H-111.171V31.5781ZM-111.171 -10.3847H-72.0213V29.8544H-111.171V-10.3847ZM-111.171 -52.3528H-72.0213V-12.1137H-111.171V-52.3528ZM-111.171 -94.3209H-72.0213V-54.0818H-111.171V-94.3421V-94.3209Z" fill="url(#paint0_radial_412_2558)" fill-opacity="0.76" style="mix-blend-mode:screen"/>
</g>
<defs>
<radialGradient id="paint0_radial_412_2558" cx="0" cy="0" r="1" gradientUnits="userSpaceOnUse" gradientTransform="translate(582.579 118.125) rotate(77.5063) scale(634.3 594.832)">
<stop offset="0.317708" stop-color="#36366A"/>
<stop offset="1" stop-color="#050511" stop-opacity="0"/>
</radialGradient>
</defs>
</svg>
