<svg width="159" height="35" viewBox="0 0 159 35" fill="none" xmlns="http://www.w3.org/2000/svg">
<g clip-path="url(#clip0_199_108)">
<path d="M39.3318 34.7047L-5.10951e-05 34.7047L0.238905 34.2746L19.642 0.295318L39.3318 34.7047ZM0.716811 34.2746L38.5671 34.2746L19.642 1.15555L0.716811 34.2746Z" fill="#F5F5F5"/>
<path d="M11.2785 17.3089L12.5211 15.1105L13.7637 12.9121L16.2488 17.3567L11.2785 17.3567L11.2785 17.3089Z" fill="#F5F5F5"/>
<path d="M14.146 12.5776L19.3074 12.5776L18.017 14.8715L16.7267 17.1655L14.146 12.5776Z" fill="#F5F5F5"/>
<path d="M17.109 7.22501L22.2227 7.22501L20.9323 9.51896L19.6897 11.8129L17.109 7.22501Z" fill="#F5F5F5"/>
<path d="M20.0721 12.5776L25.2335 12.5776L23.9432 14.8715L22.6528 17.1655L20.0721 12.5776Z" fill="#F5F5F5"/>
<path d="M23.1307 17.3088L25.6158 12.8643L28.101 17.3088L23.1307 17.3088Z" fill="#F5F5F5"/>
<path d="M14.2416 12.0518L16.7267 7.6073L19.2118 12.0518L14.2416 12.0518Z" fill="#F5F5F5"/>
<path d="M20.1677 12.0518L22.6528 7.6073L25.1379 12.0518L20.1677 12.0518Z" fill="#F5F5F5"/>
<path d="M17.2047 6.65151L19.6898 2.20697L22.1749 6.65152L17.2047 6.65151Z" fill="#F5F5F5"/>
<path d="M17.2047 17.3088L19.6898 12.8643L22.1749 17.3088L17.2047 17.3088Z" fill="#F5F5F5"/>
<path d="M20.0243 33.5099L21.3147 31.2638L22.605 29.0176L25.1379 33.5099L20.0243 33.5099Z" fill="#F5F5F5"/>
<path d="M24.3255 30.9292L22.9874 28.5875L28.34 28.5875L27.0018 30.9292L25.6637 33.271L24.3255 30.9292Z" fill="#F5F5F5"/>
<path d="M26.0459 23.1871L31.3507 23.1871L30.0126 25.4811L28.6744 27.8228L26.0459 23.1871Z" fill="#F5F5F5"/>
<path d="M29.1046 28.5875L34.4572 28.5875L33.119 30.9292L31.7809 33.271L29.1046 28.5875Z" fill="#F5F5F5"/>
<path d="M32.2588 33.5099L34.7917 29.0176L37.3246 33.5099L32.2588 33.5099Z" fill="#F5F5F5"/>
<path d="M23.0829 28.1574L25.6158 23.665L28.1487 28.1574L23.0829 28.1574Z" fill="#F5F5F5"/>
<path d="M29.2002 28.1574L31.7331 23.665L34.266 28.1574L29.2002 28.1574Z" fill="#F5F5F5"/>
<path d="M26.1416 22.7092L28.6745 18.2169L31.2074 22.7092L26.1416 22.7092Z" fill="#F5F5F5"/>
<path d="M26.1416 33.5099L28.6745 29.0176L31.2074 33.5099L26.1416 33.5099Z" fill="#F5F5F5"/>
<path d="M1.95938 33.5099L3.24973 31.2638L4.54008 29.0176L7.073 33.5099L1.95938 33.5099Z" fill="#F5F5F5"/>
<path d="M6.21273 30.9292L4.8746 28.5875L10.2272 28.5875L8.88902 30.9292L7.55088 33.271L6.21273 30.9292Z" fill="#F5F5F5"/>
<path d="M7.98098 23.1871L13.2858 23.1871L11.9476 25.4811L10.6095 27.8228L7.98098 23.1871Z" fill="#F5F5F5"/>
<path d="M10.9918 28.5875L16.3444 28.5875L15.0062 30.9292L13.6681 33.271L10.9918 28.5875Z" fill="#F5F5F5"/>
<path d="M14.146 33.5099L16.6789 29.0176L19.2118 33.5099L14.146 33.5099Z" fill="#F5F5F5"/>
<path d="M5.01803 28.1574L7.55096 23.665L10.0839 28.1574L5.01803 28.1574Z" fill="#F5F5F5"/>
<path d="M11.1352 28.1574L13.6681 23.665L16.201 28.1574L11.1352 28.1574Z" fill="#F5F5F5"/>
<path d="M8.07664 22.7092L10.6095 18.2169L13.1425 22.7092L8.07664 22.7092Z" fill="#F5F5F5"/>
<path d="M8.07664 33.5099L10.6095 29.0176L13.1425 33.5099L8.07664 33.5099Z" fill="#F5F5F5"/>
<path d="M23.2741 17.7868L28.4833 17.7868L27.1929 20.0329L25.9026 22.2791L23.2741 17.7868Z" fill="#F5F5F5"/>
<path d="M17.0613 17.7868L22.2705 17.7868L19.6898 22.2791L17.0613 17.7868Z" fill="#F5F5F5"/>
<path d="M20.1676 23.1871L25.3768 23.1871L22.7961 27.6794L20.1676 23.1871Z" fill="#F5F5F5"/>
<path d="M20.0721 22.7092L21.4103 20.3675L22.7484 18.0257L24.0865 20.3675L25.4247 22.7092L20.0721 22.7092Z" fill="#F5F5F5"/>
<path d="M16.9657 28.1096L18.3038 25.8156L19.6419 23.4739L22.3182 28.1574L16.9657 28.1574L16.9657 28.1096Z" fill="#F5F5F5"/>
<path d="M17.0613 28.5875L22.2705 28.5875L19.6898 33.0798L17.0613 28.5875Z" fill="#F5F5F5"/>
<path d="M13.9549 23.1871L19.1641 23.1871L16.5834 27.6794L13.9549 23.1871Z" fill="#F5F5F5"/>
<path d="M13.8593 22.7092L15.1974 20.3675L16.5356 18.0257L19.2596 22.7092L13.8593 22.7092Z" fill="#F5F5F5"/>
<path d="M10.8963 17.7868L16.1055 17.7868L13.5248 22.2791L10.8963 17.7868Z" fill="#F5F5F5"/>
<path fill-rule="evenodd" clip-rule="evenodd" d="M158.235 13.7723C158.57 13.7723 158.809 13.9157 158.952 14.2024L159 14.3936L159 26.1979L158.904 26.3891C158.761 26.6281 158.57 26.7236 158.283 26.7714C157.996 26.7714 157.757 26.6758 157.566 26.4369L157.423 26.2457L157.423 24.1429L157.375 22.0401L154.508 19.3161C154.282 19.1154 154.043 18.8883 153.791 18.6488C153.563 18.432 153.324 18.205 153.074 17.9779C152.76 17.6639 152.497 17.4181 152.285 17.2202C152.143 17.0867 152.023 16.975 151.927 16.8787L151.592 16.5442L151.592 25.6722C151.592 26.1024 151.545 26.3413 151.497 26.4369C151.353 26.6758 151.115 26.8192 150.78 26.8192C150.398 26.8192 150.111 26.5803 150.015 26.1501C149.968 25.959 149.968 23.9996 149.968 20.1285C149.968 16.2574 150.015 14.2502 150.063 14.1547C150.159 13.9635 150.302 13.8201 150.493 13.7723L150.541 13.7723C150.732 13.6767 150.971 13.7723 151.21 13.9635C151.497 14.2024 152.309 14.9193 153.695 16.2575C153.83 16.3921 153.949 16.4964 154.054 16.5875C154.134 16.658 154.206 16.7206 154.269 16.7831L157.375 19.794L157.423 17.0221C157.432 16.6684 157.44 16.3473 157.446 16.0584C157.474 14.8645 157.489 14.2223 157.566 14.1069C157.606 14.0282 157.677 13.9819 157.781 13.9147C157.804 13.9003 157.828 13.8848 157.853 13.8679C157.996 13.8201 158.14 13.7723 158.235 13.7723ZM144.137 15.8273C145.093 16.7831 145.619 17.9301 145.81 19.2683C145.905 19.8418 145.858 20.5108 145.762 21.1321C145.619 22.2313 145.188 23.1871 144.472 24.0474C143.755 24.9076 142.942 25.5289 141.939 25.959C140.553 26.5325 139.119 26.5803 137.638 26.1024C136.777 25.8156 136.013 25.3855 135.296 24.812C134.627 24.2385 134.101 23.5694 133.719 22.8048C133.336 22.0401 133.145 21.2277 133.097 20.3197C133.097 19.4116 133.193 18.5514 133.528 17.739C133.91 16.6876 134.579 15.8273 135.535 15.1105C136.491 14.3936 137.542 14.0113 138.784 13.8679C139.454 13.8201 140.123 13.8679 140.696 13.9635C142.082 14.2502 143.229 14.8715 144.137 15.8273ZM142.082 24.0474C143.038 23.4261 143.659 22.5658 143.994 21.5144C144.233 20.8454 144.28 20.1285 144.185 19.4594C144.089 18.7904 143.85 18.1691 143.468 17.5956C143.133 17.0699 142.656 16.592 142.034 16.2097C141.413 15.8273 140.744 15.5884 140.027 15.4928C139.788 15.445 139.597 15.445 139.454 15.445C138.354 15.4928 137.399 15.8273 136.634 16.4008C135.869 16.9743 135.296 17.739 135.009 18.7426C134.866 19.0771 134.818 19.5072 134.818 20.0807L134.818 20.3197C134.818 20.702 134.866 21.0843 135.009 21.4189C135.2 22.0401 135.535 22.5658 135.917 23.0437C136.299 23.4739 136.777 23.904 137.351 24.1907C137.924 24.4775 138.498 24.6686 139.071 24.7642C140.123 24.9076 141.126 24.6686 142.082 24.0474ZM129.513 15.1105C129.561 15.6362 129.561 17.4044 129.561 20.3197L129.561 25.5289C129.561 26.0546 129.513 26.3891 129.465 26.4847C129.322 26.7714 129.083 26.9148 128.748 26.9148C128.462 26.9148 128.223 26.7714 128.079 26.5325C128.032 26.4369 127.984 26.1501 127.984 25.6244C127.936 25.0988 127.936 23.3784 127.936 20.3678L127.936 20.3675L127.936 14.3936L128.079 14.2024C128.127 14.0591 128.271 13.9635 128.366 13.9157C128.509 13.8201 128.748 13.8201 128.94 13.8679C129.179 13.9635 129.322 14.0591 129.417 14.2024C129.465 14.2502 129.513 14.5848 129.513 15.1105ZM123.014 16.4486C123.444 17.0699 123.73 17.6912 123.922 18.3602C124.256 19.555 124.256 20.7498 123.969 21.8012C123.683 22.9004 123.061 23.9518 122.106 24.8598C120.767 26.1501 119.286 26.8192 117.613 26.8192C117.279 26.867 116.992 26.8192 116.849 26.7714C116.705 26.7714 116.562 26.6281 116.466 26.4847L116.323 26.2935L116.323 20.4152C116.323 16.4964 116.323 14.4414 116.371 14.3458C116.466 14.1069 116.61 13.9635 116.849 13.8201C117.087 13.7245 117.518 13.7245 118.187 13.8201C119.525 14.0113 120.672 14.3936 121.58 15.0149C122.105 15.3972 122.631 15.8751 123.014 16.4486ZM122.153 22.0401C122.297 21.7056 122.392 21.4189 122.44 21.1799C122.488 20.9887 122.536 20.6542 122.488 20.2719C122.488 19.7462 122.44 19.3161 122.344 18.9815C121.867 17.3088 120.767 16.2097 118.999 15.7317C118.872 15.6999 118.76 15.668 118.661 15.6397C118.463 15.5831 118.314 15.5406 118.187 15.5406L117.9 15.4928L117.9 25.2899L118.043 25.2899C118.33 25.2899 118.76 25.1465 119.334 24.9076C119.955 24.6208 120.481 24.2385 121.006 23.7128C121.532 23.1871 121.914 22.6136 122.153 22.0401ZM112.691 20.319L112.691 20.3197L112.691 25.5289C112.691 26.0546 112.643 26.3891 112.595 26.4847C112.452 26.7714 112.213 26.9148 111.878 26.9148C111.592 26.9148 111.353 26.7714 111.209 26.5325C111.161 26.4369 111.114 26.1501 111.114 25.6244C111.066 25.0987 111.066 23.3783 111.066 20.3675L111.066 14.3936L111.209 14.2024C111.257 14.0591 111.4 13.9635 111.496 13.9157C111.639 13.8201 111.878 13.8201 112.069 13.8679C112.308 13.9635 112.452 14.0591 112.547 14.2024C112.595 14.2502 112.643 14.5848 112.643 15.1105C112.691 15.6361 112.691 17.4041 112.691 20.319ZM107.244 14.5629C107.252 14.9641 107.29 16.9817 107.29 20.5108C107.29 23.5841 107.257 25.4574 107.246 26.075C107.244 26.1969 107.243 26.2699 107.243 26.2935C107.195 26.4847 107.099 26.5803 107.004 26.6758L106.956 26.7236C106.86 26.8192 106.717 26.867 106.526 26.867C106.191 26.867 105.952 26.7236 105.809 26.4369C105.761 26.2457 105.713 25.3855 105.713 23.8084C105.713 23.0203 105.7 22.2863 105.687 21.5992C105.676 20.9946 105.665 20.4264 105.665 19.8895L105.618 18.3602L103.754 22.4225C103.555 22.8592 103.371 23.2615 103.204 23.6297C102.326 25.5578 101.875 26.5478 101.794 26.6281C101.603 26.7714 101.46 26.867 101.221 26.867C100.934 26.867 100.743 26.7714 100.6 26.5803C100.544 26.468 100.306 25.944 99.878 24.9984C99.5769 24.3334 99.1813 23.46 98.688 22.3747L96.8242 18.3602L96.7764 22.3269L96.7764 26.2935L96.6808 26.4847C96.5374 26.7236 96.2985 26.867 95.9639 26.867C95.7728 26.867 95.6294 26.8192 95.486 26.7236C95.486 26.7236 95.486 26.6758 95.4382 26.6758C95.2949 26.5803 95.1993 26.3413 95.1993 25.8634C95.1515 25.4333 95.1515 23.8562 95.1515 21.1799L95.1515 20.3675C95.1515 18.2052 95.1754 16.664 95.1894 15.7606C95.1952 15.3861 95.1993 15.1212 95.1993 14.9671C95.1993 14.4414 95.2949 14.1069 95.3904 13.9635C95.4382 13.9157 95.5338 13.8679 95.6294 13.8201C95.9161 13.7245 96.1551 13.7245 96.3941 13.8679C96.4896 13.9157 96.5852 14.0113 96.6808 14.1547C96.7764 14.298 97.541 15.9707 99.0225 19.2205C100.504 22.3747 101.269 23.9996 101.317 23.9996C101.508 23.6172 102.272 21.9446 103.563 19.0771C104.996 15.8751 105.761 14.2024 105.857 14.1069C105.952 13.9635 106.096 13.8679 106.287 13.8201C106.43 13.7723 106.621 13.8201 106.812 13.9157C107.051 14.0113 107.195 14.2024 107.243 14.4892C107.243 14.4939 107.243 14.5185 107.244 14.5629ZM88.4754 17.7393C88.7374 18.4127 89.0349 19.1772 89.3688 20.0329C90.8503 23.9518 91.615 26.0068 91.6628 26.2935C91.6628 26.5325 91.5194 26.7236 91.2804 26.9148C90.9937 27.106 90.7069 27.1537 90.4202 26.9626C90.3699 26.9374 90.0679 26.7136 89.5074 26.2981C89.0031 25.9243 88.2896 25.3954 87.3616 24.7164C86.9332 24.3951 86.5504 24.1074 86.2137 23.8544C85.0481 22.9784 84.4356 22.518 84.3986 22.518C84.3986 22.518 84.303 22.6614 84.1596 22.996C84.0162 23.3305 83.8251 23.8084 83.5861 24.4775C83.3576 25.1058 83.1633 25.5805 83.0235 25.922C82.9293 26.152 82.8599 26.3215 82.8215 26.4369C82.7259 26.6758 82.5825 26.867 82.4869 26.9148C82.3436 27.0104 82.1524 27.0582 81.9134 27.0104C81.6745 26.9626 81.5311 26.867 81.3877 26.6758C81.2922 26.5325 81.2444 26.3891 81.2444 26.2457C81.2922 25.9112 81.8179 24.3819 82.8693 21.6578C82.8693 21.6285 82.9412 21.4373 83.074 21.0843C83.1577 20.8619 83.2656 20.5751 83.395 20.2241C83.5746 19.7621 83.7542 19.2726 83.9413 18.763C84.1026 18.3235 84.2693 17.8691 84.4463 17.4044C84.8287 16.353 85.1154 15.5884 85.3066 15.1105C85.3625 14.9566 85.4103 14.8273 85.4499 14.7201C85.5455 14.4612 85.5933 14.3318 85.5933 14.298C85.7367 14.0591 85.8801 13.8679 86.119 13.8201C86.2624 13.7723 86.4536 13.7723 86.5969 13.8201C86.7403 13.8201 86.8837 13.9157 86.9793 14.0113C87.054 14.086 87.5375 15.3287 88.4754 17.7393ZM88.6519 23.5216C88.8431 23.6172 88.9387 23.7128 88.9387 23.7128C88.976 23.6755 88.955 23.6382 88.9213 23.5781C88.9118 23.5613 88.9014 23.5426 88.8909 23.5216C88.8431 23.3783 88.413 22.2313 87.6005 20.1285C86.7881 18.0257 86.358 16.9743 86.358 16.9743L85.6411 18.8381L85.6405 18.8397C85.163 20.0812 84.9243 20.702 84.9243 20.7498C84.9243 20.786 85.3094 21.0699 86.0589 21.6223C86.2972 21.7979 86.5724 22.0007 86.8837 22.2313C87.0413 22.3364 87.2135 22.4704 87.3921 22.6095C87.5383 22.7233 87.6889 22.8406 87.8395 22.9482C88.1613 23.1493 88.3815 23.3166 88.5572 23.45C88.5902 23.4751 88.6217 23.499 88.6519 23.5216ZM77.899 19.3161C77.6123 19.8895 77.1344 20.3675 76.5609 20.6542C76.5399 20.662 76.5187 20.67 76.4972 20.6781C76.1254 20.8182 75.6588 20.994 74.936 21.0843L74.4581 21.1321L75.7484 23.3783C76.6564 24.9076 77.0866 25.72 77.1344 25.8156C77.2299 26.1024 77.2299 26.3413 77.1344 26.5803C76.991 26.8192 76.7998 26.9626 76.5131 27.0104C76.2741 27.0582 76.0352 26.9626 75.844 26.7714C75.7006 26.6281 74.7926 25.0987 73.1677 22.2313L70.6826 17.8345L70.6348 22.1357C70.6348 24.9554 70.587 26.4369 70.5392 26.5325C70.3959 26.7714 70.1569 26.867 69.8702 26.867C69.5356 26.867 69.2967 26.7714 69.1533 26.4847L69.0577 26.2935L69.0577 20.463L69.0577 20.4612C69.0577 16.5913 69.0577 14.5847 69.1055 14.4414C69.1533 14.3458 69.2489 14.2024 69.3445 14.1069C69.4878 14.0113 69.5834 13.9635 69.7268 13.9157C69.9179 13.8679 70.3003 13.8201 70.8738 13.8201C72.2597 13.7723 73.3589 13.7723 74.2191 13.8679C76.1308 14.0591 77.3733 14.6804 77.8512 15.7795C78.0424 16.2097 78.1858 16.6876 78.2335 17.2611C78.3291 18.0257 78.1858 18.6948 77.899 19.3161ZM73.6456 19.4116L73.8846 19.4594C74.0757 19.5072 74.3147 19.5072 74.6492 19.4116C75.0316 19.3638 75.2705 19.3161 75.5095 19.2205C75.7484 19.0771 75.9396 18.9815 76.0352 18.9337C76.2741 18.7904 76.4175 18.5514 76.5131 18.2169C76.6087 17.8823 76.6087 17.5 76.5609 17.1177C76.5131 16.592 76.3219 16.2097 75.9874 15.9707C75.7006 15.7317 75.1271 15.5406 74.3625 15.445C74.0757 15.3972 73.5023 15.3494 72.6898 15.3494C71.8774 15.3016 71.4473 15.3016 71.3995 15.3494C71.3517 15.3972 71.734 16.0663 72.4986 17.4044L73.6456 19.4116ZM64.9477 13.9157C65.1867 13.9635 65.4256 14.1069 65.5212 14.298C65.6646 14.4892 65.6646 14.7281 65.6168 15.0149C65.5386 15.2103 64.9173 16.5559 63.7528 19.0778C63.4931 19.6403 63.2064 20.2612 62.8927 20.9409C61.1244 24.6686 60.2164 26.5803 60.1686 26.6758C59.9775 26.867 59.7385 26.9626 59.4518 26.9626C58.9739 26.9148 58.7349 26.628 58.7349 26.1501C58.7349 26.0068 59.0694 25.1943 59.7385 23.7606C60.4076 22.2791 60.7421 21.5144 60.7421 21.5144C60.7421 21.5144 60.2642 20.4152 59.2606 18.3602C58.8334 17.4609 58.4909 16.752 58.2379 16.2285C57.9531 15.6392 57.7819 15.2848 57.7313 15.1583C57.6357 14.9193 57.5879 14.7281 57.5879 14.5848C57.6357 14.2502 57.7791 14.0113 58.1614 13.8679C58.5437 13.7245 58.8783 13.8679 59.1172 14.2502C59.1853 14.3863 59.3179 14.6624 59.5203 15.0835C59.7443 15.5497 60.0537 16.1936 60.4554 17.0221L61.6979 19.6028L61.7935 19.3638C61.8413 19.2205 62.2236 18.3602 62.9883 16.7354C63.7051 15.1105 64.0875 14.298 64.1831 14.2024C64.2786 14.1069 64.3742 14.0113 64.5176 13.9635C64.661 13.9157 64.8043 13.9157 64.9477 13.9157ZM53.1434 14.9671C53.4779 15.2538 53.6691 15.6362 53.8124 16.0185C53.9558 16.4008 54.0036 16.8787 54.0036 17.5956L54.0036 17.5957C54.0036 18.1213 54.0036 18.5036 53.908 18.7904C53.6213 19.6984 53.0956 20.3675 52.2831 20.7498C51.853 20.9409 51.3751 21.0843 50.8016 21.1799C50.7277 21.1866 50.648 21.1943 50.5627 21.2025C50.0416 21.2527 49.3088 21.3233 48.3643 21.3233L47.0739 21.3711L47.0739 26.3413L46.9306 26.5325C46.7394 26.7714 46.5482 26.867 46.2615 26.867C46.0226 26.867 45.7836 26.7714 45.5924 26.5325L45.4491 26.3413L45.4491 20.463C45.4013 16.5442 45.4491 14.537 45.4968 14.3936C45.5924 14.1547 45.7836 13.9635 46.0226 13.9157C46.1181 13.8679 46.7394 13.8679 47.982 13.8679C49.2245 13.8679 49.9892 13.8679 50.2759 13.9157C51.6141 14.0113 52.5699 14.3936 53.1434 14.9671ZM51.5663 19.2205C51.9008 19.0293 52.1398 18.7904 52.2831 18.5036C52.3309 18.3124 52.3787 18.0257 52.3309 17.5956C52.3309 17.1177 52.2831 16.8309 52.2354 16.6398C52.092 16.2574 51.8052 15.9707 51.4229 15.8273C51.0406 15.6362 50.4193 15.5406 49.5591 15.4928L47.0262 15.4928L47.0262 19.6984L48.4121 19.6506C48.7529 19.6336 49.0452 19.6226 49.2909 19.6134C49.7344 19.5967 50.0266 19.5858 50.1803 19.555C50.8016 19.5072 51.2795 19.3638 51.5663 19.2205ZM145.905 15.3016C145.245 15.3016 144.711 14.7667 144.711 14.1069C144.711 13.447 145.245 12.9121 145.905 12.9121C146.565 12.9121 147.1 13.447 147.1 14.1069C147.1 14.7667 146.565 15.3016 145.905 15.3016Z" fill="url(#paint0_linear_199_108)"/>
</g>
<defs>
<linearGradient id="paint0_linear_199_108" x1="90.5" y1="0.500001" x2="92.4169" y2="41.9576" gradientUnits="userSpaceOnUse">
<stop offset="0.3" stop-color="white"/>
<stop offset="1" stop-color="#6F6F6F" stop-opacity="0.75"/>
</linearGradient>
<clipPath id="clip0_199_108">
<rect width="34.4094" height="159" fill="white" transform="translate(159 0.295319) rotate(90)"/>
</clipPath>
</defs>
</svg>
