<svg width="22" height="23" viewBox="0 0 22 23" fill="none" xmlns="http://www.w3.org/2000/svg">
<mask id="mask0_458_282" style="mask-type:alpha" maskUnits="userSpaceOnUse" x="0" y="0" width="22" height="23">
<rect x="0.37085" y="0.870758" width="21.2585" height="21.2585" fill="#D9D9D9"/>
</mask>
<g mask="url(#mask0_458_282)">
<path d="M11.0001 14.1573C11.7382 14.1573 12.3656 13.899 12.8823 13.3823C13.399 12.8656 13.6574 12.2381 13.6574 11.5C13.6574 10.7619 13.399 10.1344 12.8823 9.61774C12.3656 9.10104 11.7382 8.84269 11.0001 8.84269C10.2619 8.84269 9.6345 9.10104 9.1178 9.61774C8.6011 10.1344 8.34275 10.7619 8.34275 11.5C8.34275 12.2381 8.6011 12.8656 9.1178 13.3823C9.6345 13.899 10.2619 14.1573 11.0001 14.1573ZM11.0001 15.9289C9.77475 15.9289 8.73028 15.497 7.86665 14.6334C7.00303 13.7698 6.57121 12.7253 6.57121 11.5C6.57121 10.2747 7.00303 9.23022 7.86665 8.36659C8.73028 7.50296 9.77475 7.07115 11.0001 7.07115C12.2254 7.07115 13.2699 7.50296 14.1335 8.36659C14.9971 9.23022 15.4289 10.2747 15.4289 11.5C15.4289 12.7253 14.9971 13.7698 14.1335 14.6334C13.2699 15.497 12.2254 15.9289 11.0001 15.9289ZM2.14236 12.3858C1.89139 12.3858 1.68102 12.3009 1.51125 12.1311C1.34148 11.9613 1.25659 11.751 1.25659 11.5C1.25659 11.249 1.34148 11.0387 1.51125 10.8689C1.68102 10.6991 1.89139 10.6142 2.14236 10.6142H3.9139C4.16487 10.6142 4.37524 10.6991 4.54501 10.8689C4.71479 11.0387 4.79967 11.249 4.79967 11.5C4.79967 11.751 4.71479 11.9613 4.54501 12.1311C4.37524 12.3009 4.16487 12.3858 3.9139 12.3858H2.14236ZM18.0862 12.3858C17.8353 12.3858 17.6249 12.3009 17.4551 12.1311C17.2853 11.9613 17.2005 11.751 17.2005 11.5C17.2005 11.249 17.2853 11.0387 17.4551 10.8689C17.6249 10.6991 17.8353 10.6142 18.0862 10.6142H19.8578C20.1087 10.6142 20.3191 10.6991 20.4889 10.8689C20.6586 11.0387 20.7435 11.249 20.7435 11.5C20.7435 11.751 20.6586 11.9613 20.4889 12.1311C20.3191 12.3009 20.1087 12.3858 19.8578 12.3858H18.0862ZM11.0001 5.29961C10.7491 5.29961 10.5387 5.21473 10.369 5.04495C10.1992 4.87518 10.1143 4.66481 10.1143 4.41384V2.6423C10.1143 2.39133 10.1992 2.18096 10.369 2.01119C10.5387 1.84142 10.7491 1.75653 11.0001 1.75653C11.251 1.75653 11.4614 1.84142 11.6312 2.01119C11.8009 2.18096 11.8858 2.39133 11.8858 2.6423V4.41384C11.8858 4.66481 11.8009 4.87518 11.6312 5.04495C11.4614 5.21473 11.251 5.29961 11.0001 5.29961ZM11.0001 21.2435C10.7491 21.2435 10.5387 21.1586 10.369 20.9888C10.1992 20.819 10.1143 20.6087 10.1143 20.3577V18.5862C10.1143 18.3352 10.1992 18.1248 10.369 17.9551C10.5387 17.7853 10.7491 17.7004 11.0001 17.7004C11.251 17.7004 11.4614 17.7853 11.6312 17.9551C11.8009 18.1248 11.8858 18.3352 11.8858 18.5862V20.3577C11.8858 20.6087 11.8009 20.819 11.6312 20.9888C11.4614 21.1586 11.251 21.2435 11.0001 21.2435ZM5.37542 7.11544L4.42322 6.18538C4.24607 6.02299 4.16118 5.81631 4.16856 5.56534C4.17594 5.31437 4.26083 5.10031 4.42322 4.92316C4.60037 4.74601 4.81444 4.65743 5.0654 4.65743C5.31637 4.65743 5.52305 4.74601 5.68544 4.92316L6.6155 5.87536C6.77789 6.05252 6.85909 6.2592 6.85909 6.4954C6.85909 6.73161 6.77789 6.93829 6.6155 7.11544C6.45311 7.29259 6.25012 7.37748 6.00653 7.3701C5.76295 7.36272 5.55258 7.27783 5.37542 7.11544ZM16.3147 18.0768L15.3846 17.1246C15.2222 16.9475 15.141 16.7371 15.141 16.4935C15.141 16.2499 15.2222 16.047 15.3846 15.8846C15.547 15.7074 15.75 15.6225 15.9936 15.6299C16.2372 15.6373 16.4476 15.7222 16.6247 15.8846L17.5769 16.8146C17.7541 16.977 17.8389 17.1837 17.8316 17.4347C17.8242 17.6856 17.7393 17.8997 17.5769 18.0768C17.3998 18.254 17.1857 18.3426 16.9347 18.3426C16.6838 18.3426 16.4771 18.254 16.3147 18.0768ZM15.3846 7.11544C15.2075 6.95305 15.1226 6.75006 15.13 6.50647C15.1373 6.26289 15.2222 6.05252 15.3846 5.87536L16.3147 4.92316C16.4771 4.74601 16.6838 4.66112 16.9347 4.6685C17.1857 4.67588 17.3998 4.76077 17.5769 4.92316C17.7541 5.10031 17.8426 5.31437 17.8426 5.56534C17.8426 5.81631 17.7541 6.02299 17.5769 6.18538L16.6247 7.11544C16.4476 7.27783 16.2409 7.35903 16.0047 7.35903C15.7685 7.35903 15.5618 7.27783 15.3846 7.11544ZM4.42322 18.0768C4.24607 17.8997 4.15749 17.6856 4.15749 17.4347C4.15749 17.1837 4.24607 16.977 4.42322 16.8146L5.37542 15.8846C5.55258 15.7222 5.76295 15.641 6.00653 15.641C6.25012 15.641 6.45311 15.7222 6.6155 15.8846C6.79266 16.047 6.87754 16.2499 6.87016 16.4935C6.86278 16.7371 6.77789 16.9475 6.6155 17.1246L5.68544 18.0768C5.52305 18.254 5.31637 18.3389 5.0654 18.3315C4.81444 18.3241 4.60037 18.2392 4.42322 18.0768Z" fill="#F7F8F8"/>
</g>
</svg>
